<svg xmlns="http://www.w3.org/2000/svg" viewBox="0 0 1996.42 500.35"><defs><style>.cls-1,.cls-2{fill:#fff;}.cls-1{opacity:0.71;}.cls-2{opacity:0.79;}</style></defs><g id="Layer_2" data-name="Layer 2"><g id="Layer_1-2" data-name="Layer 1"><path class="cls-1" d="M1996.42,314.55,1992.43,0H0V447.07a100.94,100.94,0,0,0,18.6,1.72,101,101,0,0,0,38.62-7.61C79,476.59,119,500.35,164.73,500.35c69,0,124.86-53.87,124.86-120.33,0-2,0-4.07-.16-6.1a101.46,101.46,0,0,0,34.7,6.1c39.21,0,73-22.18,88.75-54.21a75.16,75.16,0,0,0,123.32-3.2,103,103,0,0,0,137.51,13.7c17.08,46.83,63.36,80.39,117.79,80.39,58.52,0,107.64-38.81,121.14-91.22a127.06,127.06,0,0,0,83.58,31,129.86,129.86,0,0,0,33.18-4.33c22.39,32.36,60.57,53.69,103.95,53.69,56,0,103.39-35.54,119.22-84.49A128.34,128.34,0,0,0,1310,334.83c41.49,0,78.23-19.54,101-49.57,17.48,28.47,49.65,47.6,86.47,47.6a101.73,101.73,0,0,0,75.23-32.75,87.06,87.06,0,0,0,113.25-6.91c21.1,37.66,62.41,63.24,109.93,63.24,43.94,0,82.57-21.89,104.8-55a127.91,127.91,0,0,0,62.8,16.33C1973.44,317.8,1987.12,316.67,1996.42,314.55Z"/><path class="cls-2" d="M0,244.26,4,0H1992.43l4,358.73a116.85,116.85,0,0,1-57.23-5.08c-21.73,30.59-61.74,51.11-107.51,51.11-69,0-124.86-46.53-124.86-103.95,0-1.77.06-3.52.16-5.26a116,116,0,0,1-34.69,5.26c-39.21,0-73-19.15-88.76-46.82-13.28,16-35.44,26.45-60.57,26.45-26.54,0-49.78-11.7-62.75-29.22-18.41,17.87-45.72,29.22-76.21,29.22-23.09,0-44.32-6.5-61.29-17.38-17.08,40.45-63.36,69.44-117.79,69.44-58.53,0-107.65-33.53-121.14-78.8-22.13,16.61-51.43,26.74-83.58,26.74A149.15,149.15,0,0,1,967,276.7c-22.4,28-60.57,46.38-103.95,46.38-56,0-103.4-30.7-119.23-73a145,145,0,0,1-57.46,11.67c-41.5,0-78.24-16.87-101-42.81C568,243.55,535.78,260.07,499,260.07c-30,0-56.85-10.95-75.24-28.29-14.47,9.56-32.75,15.29-52.65,15.29-23.75,0-45.21-8.14-60.6-21.26-21.09,32.54-62.4,54.63-109.92,54.63-44,0-82.57-18.91-104.81-47.48a144,144,0,0,1-62.8,14.11C23,247.07,9.3,246.09,0,244.26Z"/></g></g></svg>