<svg xmlns="http://www.w3.org/2000/svg" xmlns:xlink="http://www.w3.org/1999/xlink" viewBox="0 0 1920 1080"><defs><style>.cls-1{fill:none;}.cls-2{isolation:isolate;}.cls-3{clip-path:url(#clip-path);}.cls-4,.cls-5,.cls-6{mix-blend-mode:multiply;}.cls-4{fill:url(#radial-gradient);}.cls-5{fill:url(#radial-gradient-2);}.cls-6{fill:url(#radial-gradient-3);}.cls-7,.cls-8{fill:#fff;}.cls-8{font-size:66px;font-family:Montserrat-SemiBold, Montserrat;font-weight:600;letter-spacing:0.29em;}.cls-9{letter-spacing:0.3em;}.cls-10{letter-spacing:0.28em;}.cls-11{letter-spacing:0.3em;}.cls-12{letter-spacing:0.29em;}</style><clipPath id="clip-path"><rect class="cls-1" width="1920" height="1080"/></clipPath><radialGradient id="radial-gradient" cx="-4979.58" cy="-3702.88" r="427.87" gradientTransform="matrix(-0.63, -0.78, 0.78, -0.63, 1206.61, -5264.15)" gradientUnits="userSpaceOnUse"><stop offset="0" stop-color="#d381a9"/><stop offset="0.1" stop-color="#d381a9" stop-opacity="0.77"/><stop offset="0.2" stop-color="#d381a9" stop-opacity="0.56"/><stop offset="0.31" stop-color="#d381a9" stop-opacity="0.39"/><stop offset="0.43" stop-color="#d381a9" stop-opacity="0.25"/><stop offset="0.55" stop-color="#d381a9" stop-opacity="0.14"/><stop offset="0.67" stop-color="#d381a9" stop-opacity="0.06"/><stop offset="0.82" stop-color="#d381a9" stop-opacity="0.01"/><stop offset="1" stop-color="#d381a9" stop-opacity="0"/></radialGradient><radialGradient id="radial-gradient-2" cx="-4532.64" cy="-3790.5" r="427.87" gradientTransform="matrix(-0.63, -0.78, 0.78, -0.63, 1103.2, -4931.25)" xlink:href="#radial-gradient"/><radialGradient id="radial-gradient-3" cx="-3931.5" cy="-3849.83" r="427.87" gradientTransform="matrix(-0.63, -0.78, 0.78, -0.63, 924.7, -4504.77)" xlink:href="#radial-gradient"/></defs><g class="cls-2"><g id="Layer_1" data-name="Layer 1"><g class="cls-3"><circle class="cls-4" cx="1479.08" cy="935.34" r="427.87" transform="translate(-228.18 1319.82) rotate(-45)"/><circle class="cls-5" cx="1025.53" cy="976.97" r="427.87" transform="translate(-390.45 1011.3) rotate(-45)"/><circle class="cls-6" cx="421.47" cy="974.73" r="427.87" transform="translate(-565.79 583.51) rotate(-45)"/><rect class="cls-7" x="-3.07" y="1003.76" width="1923.48" height="113.37"/><path class="cls-7" d="M1678.45,810.82h-10.91v-11.5l7.28-9.32H1495.57l7.28,9.32v11.5h-10.91v29.51h-13.16l13.16,11.41v160.39h59.72V910.85a33.54,33.54,0,1,1,67.07,0v101.28h59.72V851.74l13.16-11.41h-13.16Z"/><path class="cls-7" d="M1469.1,950.84l3.15-5.18h-11c-1.58-18.62-7.56-33.08-15.06-36v-8.56a8.44,8.44,0,0,0,2.13-5.91c0-4-4.89-10.24-4.89-10.24s-4.89,6.29-4.89,10.24a8.49,8.49,0,0,0,2.13,5.91v8.56c-2.84,1.09-5.46,3.84-7.71,7.86-.3-3.82-.71-7.55-1.23-11.15h1.42v-8h-2.76c-4.59-23.69-13.68-40.74-24.46-43.92v-9.23a11.19,11.19,0,0,0,2.83-7.84c0-3.94-3.67-8.43-5.49-10.42V817h-2v10c-1.81,2-5.48,6.48-5.48,10.42a11.23,11.23,0,0,0,2.82,7.84v9.23c-10.77,3.18-19.87,20.23-24.45,43.92h-2.76v8h1.41c-.51,3.6-.92,7.33-1.23,11.15-2.25-4-4.87-6.77-7.71-7.86v-8.56a8.49,8.49,0,0,0,2.13-5.91c0-4-4.89-10.24-4.89-10.24s-4.89,6.29-4.89,10.24a8.49,8.49,0,0,0,2.13,5.91v8.56c-7.49,2.88-13.48,17.34-15,36h-11l3.15,5.18v19.8h-3.15l3.15,5.18v39.31H1469.1V975.82l3.15-5.18h-3.15Z"/><path class="cls-1" d="M449.48,874.92v6h-6.23v-6a3.11,3.11,0,0,1,3.11-3.11,3.15,3.15,0,0,1,2.21.91A3.11,3.11,0,0,1,449.48,874.92Z"/><path class="cls-1" d="M459.68,874.92v6h-6.23v-6a3.11,3.11,0,0,1,3.11-3.11,3.15,3.15,0,0,1,2.21.91A3.11,3.11,0,0,1,459.68,874.92Z"/><path class="cls-1" d="M480.08,874.92v6h-6.24v-6a3.12,3.12,0,0,1,3.12-3.11,3.15,3.15,0,0,1,2.21.91A3.11,3.11,0,0,1,480.08,874.92Z"/><path class="cls-1" d="M439.28,874.92v6H433v-6a3.12,3.12,0,0,1,5.32-2.2A3.07,3.07,0,0,1,439.28,874.92Z"/><path class="cls-1" d="M469.88,874.92v6h-6.23v-6a3.11,3.11,0,0,1,3.11-3.11,3.15,3.15,0,0,1,2.21.91A3.11,3.11,0,0,1,469.88,874.92Z"/><path class="cls-7" d="M537.13,941.68l-12.35-11.43H497.61v-7.13h.81a2.9,2.9,0,0,0,0-5.79h-.81V886.66h.81a2.89,2.89,0,1,0,0-5.78H484.65V866.64h3.08a2.9,2.9,0,1,0,0-5.79h-3.08v-.65A28.14,28.14,0,0,0,466.76,834v-7.77a1.24,1.24,0,0,0-1.23-1.24h-5.85v-7.18a8.94,8.94,0,0,0,2-5.86c0-3-2.64-6.31-4.11-8v-8h-2v8c-1.48,1.65-4.11,5-4.11,8a8.94,8.94,0,0,0,2,5.86V825h-5.86a1.24,1.24,0,0,0-1.23,1.24V834a28.11,28.11,0,0,0-17.88,26.18v.65h-3.09a2.9,2.9,0,0,0,0,5.79h3.09v14.24H414.7a2.89,2.89,0,1,0,0,5.78h.81v30.67h-.81a2.9,2.9,0,0,0,0,5.79h.81v7.13H388.35L376,941.68H357.38l4.94,11.1v62.35H550.8V952.78l4.94-11.1Zm-63.29-66.76a3.12,3.12,0,0,1,3.12-3.11,3.15,3.15,0,0,1,2.21.91,3.11,3.11,0,0,1,.91,2.2v6h-6.24Zm-10.19,0a3.11,3.11,0,0,1,3.11-3.11,3.15,3.15,0,0,1,2.21.91,3.11,3.11,0,0,1,.91,2.2v6h-6.23Zm-10.2,0a3.11,3.11,0,0,1,3.11-3.11,3.15,3.15,0,0,1,2.21.91,3.11,3.11,0,0,1,.91,2.2v6h-6.23Zm-10.2,0a3.11,3.11,0,0,1,3.11-3.11,3.15,3.15,0,0,1,2.21.91,3.11,3.11,0,0,1,.91,2.2v6h-6.23Zm-10.21,0a3.12,3.12,0,0,1,5.32-2.2,3.07,3.07,0,0,1,.92,2.2v6H433Z"/><path class="cls-7" d="M85.21,962.71H87.4v-2.82H74.3l-9.66-17.25V718.73h6V712H68.7c1.22-4,4.46-10.27,12.92-10.27v-9.89l-15.49-7.09v-2.26l15.49,7.09v-3.34l-15.49-7.09v-2.46l15.49,7.09v-3.34l-15.49-7.09v-3.52h1.49v-4H63.4v-3.23H58.17V657a7.27,7.27,0,0,0-2.94-13v-4.51l4.37,1.81s-4.48-4.08-4.08-4.38,1.19-4.18.1-7.17-.1-3.58-.1-3.58,5-.7,6.47-2.89,8-3.28,8-3.28l-3.28-1.2a5.44,5.44,0,0,1-2.57-2l-1.52-2.18a19.71,19.71,0,0,1-3.48,5c-2.19,2.19-3.58.5-3.58.5s2.15-5.53-1.79-6c-5.36-.6-1.31,7.23-1.31,7.23-4.58-2.88-3.77-8.72-3.77-8.72L45.57,610c-4.78,8.66,4.87,12.84,4.87,12.84V634a5.31,5.31,0,0,0,2,4.13v5.92a7.27,7.27,0,0,0-2.95,13v5.62H44.24v3.23H40v4H41.5v3.52L26,680.46v3.34l15.48-7.09v2.46L26,686.26v3.34l15.48-7.09v2.26L26,691.86v9.89c8.45,0,11.7,6.23,12.91,10.27H37v6.71h6V942.64l-9.65,17.25H20.23v2.82h2.2l-8.87,15.84H9.41v2.82H16.5v40.76H91.14V981.37h7.09v-2.82H94.08Z"/><path class="cls-7" d="M1840.88,908.8h4.58v-3.12h-7.31v-9.61h2.31V893h-7.87c-5-12.23-14.18-37.7-16.95-56h1.79v-3.12h-2.2c-.24-2-.37-4-.4-5.74h1.77V825h-1.67a15.88,15.88,0,0,1,1.2-5.29h2.46v-3.12h-6.74c-1.55-13.05-13.52-116.3-13.68-187.59l2.92-2.93v-14.3l-2.48-2.48v-7h-6.82V576h-3.11v26.26h-6.82v7l-2.48,2.48v14.3l2.92,2.93c-.17,71.28-12.14,174.54-13.68,187.59h-6.74v3.12h2.46a16.13,16.13,0,0,1,1.2,5.29h-1.67v3.12h1.76c0,1.77-.16,3.7-.39,5.74H1763V837h1.78c-2.77,18.27-12,43.74-16.94,56H1740v3.12h2.3v9.61H1735v3.12h4.58V916L1689.66,1004H1722l1.5-3.19h17.81L1754,965.46c10-12.27,22.88-19,36.31-19s26.58,6.9,36.65,19.43l10.69,29h16.61l4.3,9.09h32.29L1840.88,916Zm-75.39-12.73v9.61h-2.68v-9.61Zm5.8,0v9.61h-2.68v-9.61Zm46.36,0v9.61H1815v-9.61Zm-5.79,9.61h-2.68v-9.61h2.68Zm8.91,0v-9.61h2.68v9.61Zm-14.71,0h-2.68v-9.61h2.68Zm-5.79,0h-2.68v-9.61h2.68Zm-5.8,0h-2.68v-9.61h2.68Zm-5.79,0H1786v-9.61h2.68Zm-5.8,0h-2.68v-9.61h2.68Zm-5.79,0h-2.68v-9.61h2.68Zm-17.39-9.61v9.61H1757v-9.61Zm-.88,29.92h12.45a64,64,0,0,0-16.42,8.4Zm50.37,0h12.46l4,8.4A64,64,0,0,0,1809.19,926Zm17.37-20.31v-9.61h2.68v9.61Zm-27.51-63.24c2.9,28.94,7.69,45,9.58,50.51h-36.79c1.88-5.48,6.68-21.57,9.58-50.51Zm-45.15,53.63v9.61h-2.68v-9.61Zm81.14,9.61h-2.68v-9.61H1835Zm-22.92-71.82h-2.94v-5.74h2.59C1811.79,829.92,1811.91,831.85,1812.12,833.86Zm-23.53-204.08v12.27h-3.32c.08-4.17.13-8.27.14-12.27Zm6.46,0c0,4,.07,8.1.15,12.27h-3.32V629.78Zm-10,19.81h3.51v6.55h-3.72Q1785,652.84,1785.08,649.59Zm10.51,6.55h-3.71v-6.55h3.5Q1795.49,652.85,1795.59,656.14Zm.67,139.5h10.1q.41,3.72.76,6.92h-10.28C1796.65,800.27,1796.45,798,1796.26,795.64Zm-.6-7.17c-.18-2.33-.37-4.64-.55-6.92h9.77l.72,6.92Zm-1.11-14.09c-.22-2.86-.43-5.64-.64-8.31h9.43q.42,4.27.82,8.31Zm-2.47-33.47c-.13-1.87-.2-2.93-.2-3V720h7.45c.55,7.12,1.12,14.11,1.71,20.87Zm-.2-28.4V706h6.41q.23,3.28.47,6.56Zm0-14.09v-6.56h5.48c.13,2.19.27,4.37.42,6.56Zm0-14.09v-6.56h4.67q.17,3.27.36,6.56Zm0-14.09v-6.56h4q.13,3.26.29,6.56Zm-7.29-6.56h4v6.56h-4.3C1784.4,668,1784.49,665.85,1784.59,663.68Zm-.67,14.09h4.67v6.56h-5Zm4.67,14.09v6.56h-5.9l.42-6.56Zm0,14.09v6.56h-6.88c.16-2.18.31-4.37.47-6.56Zm0,14.09v17.78c0,.07-.09,1.17-.22,3.09h-9c.58-6.76,1.16-13.75,1.71-20.87Zm-2,46c-.2,2.67-.41,5.45-.63,8.31h-9.61c.26-2.69.54-5.46.81-8.31Zm-1.19,15.48q-.27,3.42-.56,6.92h-9.93q.35-3.32.71-6.92Zm-1.15,14.09q-.29,3.48-.59,6.92h-10.27q.36-3.19.76-6.92Zm6-37.06c1.2,16.2,3,39.12,4.75,58h-9.49C1787.26,797.71,1789,774.8,1790.23,758.58Zm-13.14,69.54v5.74h-2.68v-5.74Zm3.11,0h2.68v5.74h-2.68Zm5.8,0h2.68v5.74H1786Zm5.79,0h2.68v5.74h-2.68Zm5.8,0h2.68v5.74h-2.68Zm5.79,0h2.68v5.74h-2.68Zm-5.27-11.53c-.21-2.23-.43-4.53-.63-6.86h10.44c.35,3.08.62,5.41.79,6.86Zm-25.56-6.86H1783c-.21,2.33-.42,4.63-.63,6.86h-10.61C1771.92,815.14,1772.2,812.81,1772.55,809.73Zm-3.86,18.39h2.6v5.74h-3A56,56,0,0,0,1768.69,828.12Zm43.82,8.86q.16,1.15.36,2.34h-45.28c.14-.79.26-1.57.37-2.34Zm-67.08,59.09h2.68v9.61h-2.68Zm-6.33,101.64h-14.16L1743,959.47a66.78,66.78,0,0,1,15.59-16.2l-7.39,20.62-.3.37.13.11Zm51.16-54.38c-12.17,0-23.86,5.12-33.6,14.57l6.28-17.51a52,52,0,0,1,54.59,0l6.5,17.67C1814.26,948.51,1802.5,943.33,1790.26,943.33Zm49.51,48.48-17.84-48.49a67.21,67.21,0,0,1,15.32,15.83l0,0,15.44,32.69Z"/><path class="cls-7" d="M329.64,854.24h1.75v-2.3h-1.75v-.81H325v.81h-1.47V803.8h2.61l-2.61-11.6h-4.06V780h2.61v-6.67h-4.06V769H307.62v4.35h-2V769h-2.3v4.35h-2V769H299v4.35h-2V769h-2.3v4.35h-2V769h-2.3v4.35h-2V769H286v4.35h-2V769h-2.3v4.35h-2V769h-2.3v4.35h-2V769h-2.31v4.35h-2V769h-2.3v4.35h-2V769H256.29v4.35h-4.05V780h2.6V792.2h-4.05l-2.61,11.6h2.61v48.14H232.86l-1.8-22V798h-2.3v32l-1.81,22H209V803.8h2.61L209,792.2H205V780h2.61v-6.67h-4.06V769H193.08v4.35h-2V769h-2.31v4.35h-2V769h-2.3v4.35h-2V769h-2.3v4.35h-2V769h-2.3v4.35h-2V769h-2.3v4.35h-2V769h-2.3v4.35h-2V769h-2.3v4.35h-2V769h-2.3v4.35h-2V769h-2.31v4.35h-2V769H141.76v4.35H137.7V780h2.61V792.2h-4.06l-2.61,11.6h2.61v48.14h-.31v-.81h-4.6v.81h-.6v2.3h.6v2.62h-.6v7h5.51v31.9h-7.83v5.79h4.06v26.1h-4.06v86.52h203V927.61h-4.06v-26.1h4.06v-5.79h-7.83v-31.9h7.83v-7h-1.76Zm-115.83,9.58h3.45V892l-2.42,3.72h-1Zm26.45,0v24.64l-3.45-5.31V863.82Zm-3.45-7v-2.62h3.45v2.62Zm-2.3,22.74-.34-.51V867.88l-.33-4.06h.67Zm-8.87-11.72v11.21l-.33.51V863.82H226ZM223,883.15l-3.45,5.31V863.82H223Zm-3.45-26.29v-2.62H223v2.62Zm-2.3,0h-3.45v-2.62h3.45ZM245,895.72,242.56,892V863.82H246v31.9Zm-2.41-38.86v-2.62H246v2.62Zm5.75-2.62h2.48v2.62h-2.48Zm-13.8,0v2.62h-1.24l-.22-2.62Zm-8,2.62h-1.24v-2.62h1.45Zm-15.05-2.62v2.62H209v-2.62Zm-75.56,2.62v-2.62h.31v2.62Zm73.09,7h2.47v31.9H209Zm41.76,31.9h-2.48v-31.9h2.48Zm72.78-41.48H325v2.62h-1.47Z"/><rect class="cls-1" width="1920" height="1080"/></g><text class="cls-8" transform="translate(645.38 948.79)">P<tspan class="cls-9" x="67.06" y="0">RO </tspan><tspan x="248.49" y="0">E</tspan><tspan class="cls-10" x="311.85" y="0">V</tspan><tspan class="cls-11" x="378.77" y="0">EN</tspan><tspan class="cls-12" x="516.05" y="0">T</tspan><tspan class="cls-11" x="575.12" y="0">S</tspan></text></g></g></svg>