<svg xmlns="http://www.w3.org/2000/svg" xmlns:xlink="http://www.w3.org/1999/xlink" viewBox="0 0 1920 1080"><defs><style>.cls-1{fill:none;}.cls-2{isolation:isolate;}.cls-3{clip-path:url(#clip-path);}.cls-4,.cls-5,.cls-6,.cls-8,.cls-9{mix-blend-mode:multiply;}.cls-4{fill:url(#radial-gradient);}.cls-5{fill:url(#radial-gradient-2);}.cls-6{fill:url(#radial-gradient-3);}.cls-10,.cls-7{fill:#fff;}.cls-7{opacity:0.71;}.cls-8{fill:url(#radial-gradient-4);}.cls-9{fill:url(#radial-gradient-5);}.cls-10{opacity:0.79;}</style><clipPath id="clip-path"><rect class="cls-1" width="1920" height="1080"/></clipPath><radialGradient id="radial-gradient" cx="-4866.08" cy="987.38" r="508.32" gradientTransform="matrix(-0.63, -0.78, 0.78, -0.63, -2192.53, -3004.39)" gradientUnits="userSpaceOnUse"><stop offset="0" stop-color="#d381a9"/><stop offset="0.1" stop-color="#d381a9" stop-opacity="0.77"/><stop offset="0.2" stop-color="#d381a9" stop-opacity="0.56"/><stop offset="0.31" stop-color="#d381a9" stop-opacity="0.39"/><stop offset="0.43" stop-color="#d381a9" stop-opacity="0.25"/><stop offset="0.55" stop-color="#d381a9" stop-opacity="0.14"/><stop offset="0.67" stop-color="#d381a9" stop-opacity="0.06"/><stop offset="0.82" stop-color="#d381a9" stop-opacity="0.01"/><stop offset="1" stop-color="#d381a9" stop-opacity="0"/></radialGradient><radialGradient id="radial-gradient-2" cx="-4204.7" cy="930.72" r="508.32" gradientTransform="matrix(-0.63, -0.78, 0.78, -0.63, -2394.72, -2538.3)" xlink:href="#radial-gradient"/><radialGradient id="radial-gradient-3" cx="-3530.13" cy="845.04" r="508.32" gradientTransform="translate(-3295.89 632.16) rotate(-174.15)" xlink:href="#radial-gradient"/><radialGradient id="radial-gradient-4" cx="-4689.73" cy="1100.36" r="508.32" gradientTransform="translate(-3295.89 632.16) rotate(-174.15)" xlink:href="#radial-gradient"/><radialGradient id="radial-gradient-5" cx="-3803.41" cy="1011.82" r="508.32" gradientTransform="translate(-3295.89 632.16) rotate(-174.15)" xlink:href="#radial-gradient"/></defs><g class="cls-2"><g id="Layer_1" data-name="Layer 1"><g class="cls-3"><circle class="cls-4" cx="1645.5" cy="145.77" r="508.32" transform="translate(378.88 1206.24) rotate(-45)"/><circle class="cls-5" cx="981.79" cy="134.74" r="508.33" transform="translate(192.28 733.69) rotate(-45)"/><circle class="cls-6" cx="301.99" cy="151.24" r="508.33"/><path class="cls-7" d="M1940.38,165.07l-4-314.55H-56V297.59a100.94,100.94,0,0,0,18.6,1.72,101.05,101.05,0,0,0,38.63-7.6c21.73,35.4,61.74,59.16,107.51,59.16,69,0,124.86-53.86,124.86-120.33,0-2-.06-4.07-.16-6.09a101.59,101.59,0,0,0,34.69,6.09c39.21,0,73-22.17,88.76-54.2a75.17,75.17,0,0,0,123.32-3.2,103,103,0,0,0,137.5,13.7c17.08,46.82,63.36,80.39,117.79,80.39,58.53,0,107.65-38.81,121.14-91.22a127.11,127.11,0,0,0,83.58,31,129.8,129.8,0,0,0,33.18-4.33c22.39,32.37,60.57,53.69,103.95,53.69,56,0,103.4-35.53,119.23-84.49A128.13,128.13,0,0,0,1254,185.35c41.5,0,78.24-19.53,101-49.57,17.48,28.47,49.65,47.6,86.47,47.6a101.72,101.72,0,0,0,75.24-32.75,87,87,0,0,0,113.25-6.91C1651,181.38,1692.31,207,1739.83,207c43.94,0,82.57-21.89,104.81-55a127.89,127.89,0,0,0,62.8,16.34C1917.4,168.33,1931.08,167.2,1940.38,165.07Z"/><circle class="cls-8" cx="1481.58" cy="15.41" r="508.33"/><circle class="cls-9" cx="590.84" cy="13.17" r="508.33"/><path class="cls-10" d="M-56,94.78l4-244.26H1936.39l4,358.74a117.12,117.12,0,0,1-18.6,1.48,114.84,114.84,0,0,1-38.62-6.57c-21.73,30.59-61.74,51.11-107.51,51.11-69,0-124.86-46.53-124.86-103.95,0-1.76,0-3.51.16-5.26a116.08,116.08,0,0,1-34.7,5.26c-39.21,0-73-19.15-88.76-46.82-13.28,16-35.43,26.45-60.57,26.45-26.53,0-49.78-11.7-62.74-29.21C1385.77,119.62,1358.46,131,1328,131c-23.09,0-44.31-6.5-61.29-17.38C1249.59,154,1203.31,183,1148.88,183c-58.53,0-107.64-33.53-121.14-78.8-22.13,16.6-51.43,26.73-83.58,26.73A149.22,149.22,0,0,1,911,127.23c-22.39,28-60.57,46.38-104,46.38-56,0-103.39-30.7-119.23-73a145,145,0,0,1-57.46,11.68c-41.49,0-78.23-16.88-101-42.82-17.48,24.59-49.65,41.11-86.47,41.11-30,0-56.85-10.94-75.23-28.28A95.71,95.71,0,0,1,315,97.59c-23.75,0-45.21-8.14-60.59-21.25C233.34,108.87,192,131,144.51,131c-43.94,0-82.57-18.91-104.8-47.48a143.92,143.92,0,0,1-62.8,14.11C-33.06,97.59-46.74,96.62-56,94.78Z"/><polygon class="cls-1" points="1920.41 1279.81 0.41 1280.15 0.41 0.15 1920.41 0.15 1920.41 1279.81"/><rect class="cls-1" width="1920" height="1080"/></g></g></g></svg>