<svg xmlns="http://www.w3.org/2000/svg" xmlns:xlink="http://www.w3.org/1999/xlink" viewBox="0 0 1920 1080"><defs><style>.cls-1{fill:none;}.cls-2{isolation:isolate;}.cls-3{clip-path:url(#clip-path);}.cls-4,.cls-5,.cls-6,.cls-8,.cls-9{mix-blend-mode:multiply;}.cls-4{fill:url(#radial-gradient);}.cls-5{fill:url(#radial-gradient-2);}.cls-6{fill:url(#radial-gradient-3);}.cls-10,.cls-7{fill:#fff;}.cls-7{opacity:0.71;}.cls-8{fill:url(#radial-gradient-4);}.cls-9{fill:url(#radial-gradient-5);}.cls-10{opacity:0.79;}</style><clipPath id="clip-path"><rect class="cls-1" width="1920" height="1080"/></clipPath><radialGradient id="radial-gradient" cx="-6116.51" cy="1051.39" r="508.32" gradientTransform="matrix(-0.63, -0.78, 0.78, -0.63, -3032.07, -3933.82)" gradientUnits="userSpaceOnUse"><stop offset="0" stop-color="#c98b1c"/><stop offset="0.02" stop-color="#c98b1c" stop-opacity="0.93"/><stop offset="0.1" stop-color="#c98b1c" stop-opacity="0.71"/><stop offset="0.19" stop-color="#c98b1c" stop-opacity="0.52"/><stop offset="0.28" stop-color="#c98b1c" stop-opacity="0.36"/><stop offset="0.38" stop-color="#c98b1c" stop-opacity="0.23"/><stop offset="0.49" stop-color="#c98b1c" stop-opacity="0.13"/><stop offset="0.61" stop-color="#c98b1c" stop-opacity="0.05"/><stop offset="0.76" stop-color="#c98b1c" stop-opacity="0.01"/><stop offset="1" stop-color="#c98b1c" stop-opacity="0"/></radialGradient><radialGradient id="radial-gradient-2" cx="-5455.14" cy="994.73" r="508.32" gradientTransform="matrix(-0.63, -0.78, 0.78, -0.63, -3234.26, -3467.74)" xlink:href="#radial-gradient"/><radialGradient id="radial-gradient-3" cx="-4780.57" cy="909.05" r="508.32" gradientTransform="translate(-4546.76 568.27) rotate(-174.15)" xlink:href="#radial-gradient"/><radialGradient id="radial-gradient-4" cx="-5940.17" cy="1164.37" r="508.32" gradientTransform="translate(-4546.76 568.27) rotate(-174.15)" xlink:href="#radial-gradient"/><radialGradient id="radial-gradient-5" cx="-5053.84" cy="1075.83" r="508.32" gradientTransform="translate(-4546.76 568.27) rotate(-174.15)" xlink:href="#radial-gradient"/></defs><g class="cls-2"><g id="BACKGROUND_2" data-name="BACKGROUND 2"><g class="cls-3"><circle class="cls-4" cx="1645.09" cy="145.61" r="508.32" transform="translate(378.87 1205.9) rotate(-45)"/><circle class="cls-5" cx="981.37" cy="134.59" r="508.33" transform="translate(192.27 733.36) rotate(-45)"/><circle class="cls-6" cx="301.58" cy="151.09" r="508.33"/><path class="cls-7" d="M1940,164.92l-4-314.55H-56.45V297.44a100.94,100.94,0,0,0,18.6,1.72A101.06,101.06,0,0,0,.78,291.55C22.51,327,62.51,350.72,108.29,350.72c69,0,124.86-53.87,124.86-120.33,0-2-.06-4.07-.16-6.1a101.36,101.36,0,0,0,34.69,6.1c39.21,0,73-22.17,88.76-54.2A75.17,75.17,0,0,0,479.76,173a103,103,0,0,0,137.5,13.69c17.08,46.83,63.36,80.4,117.79,80.4,58.53,0,107.65-38.82,121.14-91.23a127.06,127.06,0,0,0,83.58,31A129.8,129.8,0,0,0,973,202.48c22.39,32.36,60.57,53.69,104,53.69,56,0,103.39-35.54,119.23-84.49a128.27,128.27,0,0,0,57.46,13.52c41.5,0,78.24-19.54,101-49.57,17.48,28.47,49.65,47.6,86.47,47.6a101.75,101.75,0,0,0,75.24-32.75,87.06,87.06,0,0,0,113.25-6.91c21.09,37.66,62.4,63.24,109.92,63.24,43.94,0,82.57-21.89,104.81-55a127.88,127.88,0,0,0,62.8,16.33C1917,168.17,1930.67,167.05,1940,164.92Z"/><circle class="cls-8" cx="1481.17" cy="15.25" r="508.33"/><circle class="cls-9" cx="590.43" cy="13.02" r="508.33"/><path class="cls-10" d="M-56.45,94.63l4-244.26H1936l4,358.74a117.12,117.12,0,0,1-18.6,1.48,115,115,0,0,1-38.62-6.57c-21.73,30.59-61.74,51.11-107.52,51.11-69,0-124.85-46.53-124.85-103.95,0-1.77,0-3.52.16-5.26a116.08,116.08,0,0,1-34.7,5.26c-39.21,0-73-19.15-88.76-46.82-13.28,16-35.43,26.45-60.57,26.45-26.53,0-49.78-11.7-62.74-29.22-18.41,17.88-45.72,29.22-76.22,29.22-23.09,0-44.31-6.5-61.29-17.38-17.08,40.45-63.36,69.44-117.79,69.44-58.53,0-107.65-33.52-121.14-78.8-22.13,16.61-51.43,26.74-83.58,26.74a149.22,149.22,0,0,1-33.18-3.74c-22.39,28-60.57,46.38-104,46.38-56,0-103.39-30.7-119.23-73a145,145,0,0,1-57.46,11.67c-41.49,0-78.23-16.87-100.95-42.81-17.48,24.59-49.65,41.11-86.47,41.11-30,0-56.85-11-75.23-28.29a95.64,95.64,0,0,1-52.66,15.29c-23.75,0-45.21-8.14-60.59-21.26-21.1,32.54-62.41,54.63-109.93,54.63-43.94,0-82.57-18.91-104.8-47.48A144.08,144.08,0,0,1-23.51,97.44C-33.47,97.44-47.15,96.46-56.45,94.63Z"/><rect class="cls-1" width="1920" height="1080"/></g></g></g></svg>