<svg xmlns="http://www.w3.org/2000/svg" xmlns:xlink="http://www.w3.org/1999/xlink" viewBox="0 0 1920 1080"><defs><style>.cls-1{fill:none;}.cls-2{isolation:isolate;}.cls-3{clip-path:url(#clip-path);}.cls-4,.cls-5,.cls-6,.cls-8,.cls-9{mix-blend-mode:multiply;}.cls-4{fill:url(#radial-gradient);}.cls-5{fill:url(#radial-gradient-2);}.cls-6{fill:url(#radial-gradient-3);}.cls-10,.cls-7{fill:#fff;}.cls-7{opacity:0.71;}.cls-8{fill:url(#radial-gradient-4);}.cls-9{fill:url(#radial-gradient-5);}.cls-10{opacity:0.79;}</style><clipPath id="clip-path"><rect class="cls-1" width="1920" height="1080"/></clipPath><radialGradient id="radial-gradient" cx="-4650.39" cy="976.29" r="508.32" gradientTransform="matrix(-0.63, -0.78, 0.78, -0.63, -2048, -2844.07)" gradientUnits="userSpaceOnUse"><stop offset="0" stop-color="#d35b2d"/><stop offset="0.05" stop-color="#d35b2d" stop-opacity="0.9"/><stop offset="0.18" stop-color="#d35b2d" stop-opacity="0.66"/><stop offset="0.31" stop-color="#d35b2d" stop-opacity="0.46"/><stop offset="0.45" stop-color="#d35b2d" stop-opacity="0.29"/><stop offset="0.58" stop-color="#d35b2d" stop-opacity="0.16"/><stop offset="0.72" stop-color="#d35b2d" stop-opacity="0.07"/><stop offset="0.86" stop-color="#d35b2d" stop-opacity="0.02"/><stop offset="1" stop-color="#d35b2d" stop-opacity="0"/></radialGradient><radialGradient id="radial-gradient-2" cx="-3989.02" cy="919.63" r="508.32" gradientTransform="matrix(-0.63, -0.78, 0.78, -0.63, -2250.2, -2377.99)" xlink:href="#radial-gradient"/><radialGradient id="radial-gradient-3" cx="-3314.45" cy="833.94" r="508.32" gradientTransform="translate(-3080.46 643.17) rotate(-174.15)" xlink:href="#radial-gradient"/><radialGradient id="radial-gradient-4" cx="-4474.05" cy="1089.27" r="508.32" gradientTransform="translate(-3080.46 643.17) rotate(-174.15)" xlink:href="#radial-gradient"/><radialGradient id="radial-gradient-5" cx="-3587.72" cy="1000.73" r="508.32" gradientTransform="translate(-3080.46 643.17) rotate(-174.15)" xlink:href="#radial-gradient"/></defs><g class="cls-2"><g id="Layer_1" data-name="Layer 1"><g class="cls-3"><circle class="cls-4" cx="1645.24" cy="145.83" r="508.32" transform="translate(378.76 1206.07) rotate(-45)"/><circle class="cls-5" cx="981.53" cy="134.8" r="508.33" transform="translate(192.16 733.53) rotate(-45)"/><circle class="cls-6" cx="301.74" cy="151.3" r="508.33"/><path class="cls-7" d="M1940.12,165.14l-4-314.55H-56.29V297.66a101.78,101.78,0,0,0,18.59,1.71,101,101,0,0,0,38.63-7.6c21.73,35.41,61.74,59.17,107.51,59.17,69,0,124.86-53.87,124.86-120.34q0-3.06-.16-6.09a101.45,101.45,0,0,0,34.7,6.09c39.21,0,73-22.17,88.75-54.2a75.17,75.17,0,0,0,123.32-3.2,103.06,103.06,0,0,0,137.51,13.7c17.08,46.83,63.36,80.39,117.79,80.39,58.52,0,107.64-38.81,121.14-91.22a127,127,0,0,0,83.57,31,129.74,129.74,0,0,0,33.18-4.32c22.4,32.36,60.57,53.69,104,53.69,56,0,103.39-35.54,119.22-84.49a128.3,128.3,0,0,0,57.46,13.52c41.5,0,78.24-19.54,101-49.57,17.49,28.47,49.66,47.59,86.48,47.59a101.72,101.72,0,0,0,75.23-32.74,87,87,0,0,0,113.25-6.92c21.09,37.67,62.4,63.24,109.93,63.24,43.94,0,82.57-21.89,104.8-55a127.89,127.89,0,0,0,62.8,16.34C1917.15,168.39,1930.83,167.26,1940.12,165.14Z"/><circle class="cls-8" cx="1481.32" cy="15.47" r="508.33"/><circle class="cls-9" cx="590.59" cy="13.23" r="508.33"/><path class="cls-10" d="M-56.29,94.84l4-244.25H1936.14l4,358.73a117.17,117.17,0,0,1-57.22-5.08c-21.73,30.58-61.74,51.11-107.51,51.11-69,0-124.86-46.54-124.86-103.95,0-1.77,0-3.52.16-5.27A115.7,115.7,0,0,1,1616,151.4c-39.22,0-73-19.16-88.76-46.82-13.28,16-35.44,26.45-60.57,26.45-26.54,0-49.78-11.7-62.75-29.22C1385.51,119.68,1358.2,131,1327.7,131c-23.08,0-44.31-6.5-61.28-17.39-17.09,40.46-63.36,69.45-117.8,69.45-58.52,0-107.64-33.53-121.14-78.8C1005.36,120.9,976.05,131,943.91,131a149.15,149.15,0,0,1-33.18-3.74c-22.4,28-60.57,46.38-104,46.38-56,0-103.4-30.7-119.23-73a144.88,144.88,0,0,1-57.46,11.68c-41.5,0-78.24-16.87-101-42.82-17.48,24.6-49.65,41.12-86.47,41.12-30,0-56.85-11-75.24-28.29a95.6,95.6,0,0,1-52.65,15.28c-23.75,0-45.22-8.13-60.6-21.25C233.09,108.93,191.78,131,144.25,131c-43.94,0-82.56-18.91-104.8-47.49a143.86,143.86,0,0,1-62.8,14.11C-33.31,97.65-47,96.68-56.29,94.84Z"/><polygon class="cls-1" points="1920.15 1279.88 0.15 1280.22 0.15 0.22 1920.15 0.22 1920.15 1279.88"/><rect class="cls-1" width="1920" height="1080"/></g></g></g></svg>