<svg xmlns="http://www.w3.org/2000/svg" xmlns:xlink="http://www.w3.org/1999/xlink" viewBox="0 0 1920 1080"><defs><style>.cls-1,.cls-8{fill:none;}.cls-2{isolation:isolate;}.cls-3{clip-path:url(#clip-path);}.cls-4,.cls-5,.cls-6{mix-blend-mode:multiply;}.cls-4{fill:url(#radial-gradient);}.cls-5{fill:url(#radial-gradient-2);}.cls-6{fill:url(#radial-gradient-3);}.cls-13,.cls-7{fill:#fff;}.cls-13,.cls-8{font-size:66px;font-family:Montserrat-SemiBold, Montserrat;font-weight:600;letter-spacing:0.29em;}.cls-9{letter-spacing:0.28em;}.cls-10{letter-spacing:0.3em;}.cls-11{letter-spacing:0.29em;}.cls-12{letter-spacing:0.3em;}</style><clipPath id="clip-path"><rect class="cls-1" width="1920" height="1080"/></clipPath><radialGradient id="radial-gradient" cx="-9504.4" cy="426.17" r="427.87" gradientTransform="matrix(-0.63, -0.78, 0.78, -0.63, -4852.51, -6166.03)" gradientUnits="userSpaceOnUse"><stop offset="0" stop-color="#d35b2d"/><stop offset="0.05" stop-color="#d35b2d" stop-opacity="0.9"/><stop offset="0.18" stop-color="#d35b2d" stop-opacity="0.66"/><stop offset="0.31" stop-color="#d35b2d" stop-opacity="0.46"/><stop offset="0.45" stop-color="#d35b2d" stop-opacity="0.29"/><stop offset="0.58" stop-color="#d35b2d" stop-opacity="0.16"/><stop offset="0.72" stop-color="#d35b2d" stop-opacity="0.07"/><stop offset="0.86" stop-color="#d35b2d" stop-opacity="0.02"/><stop offset="1" stop-color="#d35b2d" stop-opacity="0"/></radialGradient><radialGradient id="radial-gradient-2" cx="-9062.48" cy="318.96" r="427.87" gradientTransform="matrix(-0.63, -0.78, 0.78, -0.63, -4940.9, -5829.39)" xlink:href="#radial-gradient"/><radialGradient id="radial-gradient-3" cx="-8302.53" cy="259.45" r="427.87" gradientTransform="matrix(-0.63, -0.78, 0.78, -0.63, -5177, -5295.87)" xlink:href="#radial-gradient"/></defs><g class="cls-2"><g id="Layer_1" data-name="Layer 1"><g class="cls-3"><circle class="cls-4" cx="1478.82" cy="935.41" r="427.87" transform="translate(-228.3 1319.66) rotate(-45)"/><circle class="cls-5" cx="1028.27" cy="997.03" r="427.87" transform="translate(-403.83 1019.12) rotate(-45)"/><circle class="cls-6" cx="266.21" cy="978.8" r="427.87" transform="translate(-614.14 474.92) rotate(-45)"/><rect class="cls-7" x="-3.33" y="1003.82" width="1923.48" height="113.37"/><path class="cls-7" d="M341.94,996.36h-3.57v-6.3h1.86V988h-1.86V956.72h1.86v-2.07h-1.86V928.93H336.3V885.72h0l-3-16.93-3,16.93h-6.42l-3-16.93-3,16.93h-.05v43.21h-2.06L304.89,912.4l-.81-17.8-.81,17.85-10.34,16.48h-2V885.72h0l-3-16.93-3,16.93h-6.42l-3-16.93-3,16.93h-.05v43.21h-2.07v25.72H268.4v2.07h1.87V988H268.4v2.07h1.87v6.3H258.48v-22h1.59v-2.65h-1.59V948.08h1.59v-2.65h-1.59V921.91h1.59V919h-1.59V894.83h5V851.9h-5V837.77l-7.2-11.46V808.66l-5.85-6L242,764.72l-3.42,37.94-5.84,6v17.65l-7.2,11.46V851.9h-5v42.93h5V919H224v2.93h1.58v23.52H224v2.65h1.58v23.66H224v2.65h1.58v22H213.21V845.57l-22.32-12.32V821.82a18.06,18.06,0,0,0-7.84-14.9l-20.38-14V996.36h-.27L127.54,690.71,125.9,670l-3.34,20.71,4.27,305.65H125L120.45,700.8,107.8,996.36h-2l12.82-302.67-4.59-16.52.66,17.21-44.45,302H59V1010H341.77C341.71,1005.44,342.12,1000.93,341.94,996.36Zm-169,0h-5V815.27h5Zm8.78,0h-5V821.22h5Zm8.77,0h-5V840.07h5Zm8.78,0h-5V847.49h5Zm8.78,0h-5V854.29h5Zm25.33,0h-2.89v-19h2.89Zm0-26.81h-2.89V950.61h2.89Zm0-26.8h-2.89V923.81h2.89Zm0-26.8h-2.89V897h2.89Zm6.76,80.41h-2.9v-19h2.9Zm0-26.81h-2.9V950.61h2.9Zm0-26.8h-2.9V923.81h2.9Zm0-26.8h-2.9V897h2.9Zm6.75,80.41h-2.9v-19h2.9Zm0-26.81h-2.9V950.61h2.9Zm0-26.8h-2.9V923.81h2.9Zm0-26.8h-2.9V897h2.9ZM242,884.61a11.25,11.25,0,0,1-1-22.45c-.12.31-.23.61-.32.92l-.15.52a.94.94,0,0,0,0,.52v9.24a.56.56,0,0,0,.56.56h7c.12,0,.24,0,.35,0a2.42,2.42,0,0,0,.36-.1c.48-.13,1-.29,1.43-.46-.47-.18-.95-.33-1.43-.47l-.36-.1c-.11,0-.23,0-.35,0h-6.44v-8.68a1,1,0,0,0,0-.52l-.15-.52c-.1-.31-.21-.62-.32-.93.29,0,.59,0,.89,0a11.25,11.25,0,1,1,0,22.5Zm11.58,111.75h-2.9v-19h2.9Zm0-26.81h-2.9V950.61h2.9Zm0-26.8h-2.9V923.81h2.9Zm0-26.8h-2.9V897h2.9Zm22.78-17.28a5.27,5.27,0,0,1,10.53,0v12.49H276.37ZM287,981.42H276.3V971.15a5.34,5.34,0,1,1,10.67,0ZM287,950H276.3V939.68a5.34,5.34,0,1,1,10.67,0Zm23.51,46.4H298.09V985.51a6.2,6.2,0,0,1,12.39,0ZM313.07,968H295.51V949.27a8.78,8.78,0,1,1,17.56,0Zm8.67-69.32a5.27,5.27,0,0,1,10.53,0v12.49H321.74Zm10.6,80.77H321.67V969.16a5.34,5.34,0,1,1,10.67,0Zm0-31.15H321.67V938a5.34,5.34,0,1,1,10.67,0Z"/><path class="cls-7" d="M1898.55,1007.39h-19.28V925.06h0V892.42h3.65v-3.75h-3.65l-10.53-12.91-.19-5a2.86,2.86,0,0,0-.2-5.49l-.7-19-.71,19a2.86,2.86,0,0,0-.2,5.49l-.18,5L1856,888.67h-3.65v3.75H1856v24.74h-4.08v8.25h-3.65v-8.25h-12.37v8.25h-3.66v-8.25h-12.37v8.25h-3.65v-8.25h-12.37v8.25h-3.66v-8.25h-12.37v8.25h-3.66v-8.25h-.32a5.87,5.87,0,0,0,.29-1.74,5.64,5.64,0,0,0-10.61-2.74l-3.21-1.19a106.2,106.2,0,0,0,4.42-15.93l2.62.48a5.65,5.65,0,1,0,.32-2.28l-2.53-.46a107.49,107.49,0,0,0,1.56-16.46l2.39,0a5.66,5.66,0,1,0-.2-2.3l-2.17,0a107.76,107.76,0,0,0-1.3-16.47l2.3-.39a5.65,5.65,0,1,0-.38-2.27l-2.3.39a106.71,106.71,0,0,0-4.15-16l3.29-1.17-.2-.56a5.61,5.61,0,1,0-.79-2.88,6.16,6.16,0,0,0,.15,1.3l-3.22,1.14a107.44,107.44,0,0,0-6.89-15l2.2-1.25a5.74,5.74,0,1,0-1-2.05l-2.28,1.3a108.4,108.4,0,0,0-9.39-13.6l2.5-2.06a5.64,5.64,0,0,0,8.45-4.85,5.65,5.65,0,1,0-10.19,3.3l-2.22,1.84a110.18,110.18,0,0,0-11.59-11.78l1.63-1.91a5.65,5.65,0,1,0-1.39-1.92l-2,2.34a108.31,108.31,0,0,0-13.45-9.6l1.54-2.61a5.43,5.43,0,0,0,2.31.52,5.66,5.66,0,1,0-4.17-1.9l-1.66,2.82a106.89,106.89,0,0,0-14.91-7.13l.73-2a4.58,4.58,0,0,0,.83.08,5.67,5.67,0,1,0-3-.89l-.73,2a106.17,106.17,0,0,0-15.93-4.41l.43-2.32a5.65,5.65,0,1,0-2.26-.46l-.43,2.36a107.49,107.49,0,0,0-16.46-1.56l0-3.5v-.11a5.67,5.67,0,1,0-2.31,0v.12l0,3.5a108,108,0,0,0-16.48,1.3l-.34-2a5.67,5.67,0,1,0-2.26.39l.34,2a106.71,106.71,0,0,0-16,4.15l-1.13-3.16a5.63,5.63,0,1,0-3,.86,4.91,4.91,0,0,0,.86-.08l1.12,3.15a107.53,107.53,0,0,0-15,6.89l-1.38-2.44a5.64,5.64,0,1,0-3.89,1.52,5.82,5.82,0,0,0,1.92-.33l1.35,2.39a107.28,107.28,0,0,0-13.6,9.38l-2.25-2.73h0a5.69,5.69,0,1,0-1.43,1.18l-.34.27,2.26,2.73a109.26,109.26,0,0,0-11.78,11.59l-2.16-1.84a5.63,5.63,0,1,0-1.4,1.82l2.07,1.77a108.31,108.31,0,0,0-9.6,13.45l-2.71-1.6a5.66,5.66,0,1,0-.93,2.13l2.47,1.45A106.89,106.89,0,0,0,1568,836l-3.22-1.2a5.42,5.42,0,0,0,.19-1.34,5.65,5.65,0,1,0-5.69,5.6,5.59,5.59,0,0,0,4.5-2.23l.15.1,3.27,1.22a106.2,106.2,0,0,0-4.42,15.93l-2.69-.49a5.63,5.63,0,1,0-.42,2.26l2.7.49a107.49,107.49,0,0,0-1.56,16.46l-2.68,0a5.64,5.64,0,1,0,0,2.3l2.68,0a108,108,0,0,0,1.3,16.48l-3.44.57.06.37a5.63,5.63,0,1,0,.41,2.14c0-.08,0-.16,0-.25l3.37-.57a106.71,106.71,0,0,0,4.15,16l-2.92,1a5.65,5.65,0,1,0,.91,3.12,6,6,0,0,0-.09-1l2.87-1a107.78,107.78,0,0,0,6.56,14.41h-65.83v-23.1h0v-8.72l-3.08-5.16-.35-18.7-.35,18.7-3.08,5.16v8.69h-.5v-16l-3.68-6.18-.35-18.58-.35,18.58-3.69,6.18v16h-.49v-8.69l-3.09-5.16-.34-18.7-.35,18.7-3.09,5.16v86.8h-8.75v26h-2.42c.18,4.57-.23,9.05-.17,13.61h424.54Zm-404-99.92h4.5V912h-4.5Zm5.87,67.8h-7.25V968h7.25Zm0-13.87h-7.25v-7.25h7.25Zm0-13.87h-7.25v-7.25h7.25Zm0-22.25h-7.25V918h7.25Zm269.47-50.79-5.54,0a95.16,95.16,0,0,0-1.12-14.31l5.46-.92A102.61,102.61,0,0,1,1769.84,874.49Zm0,2.3a100.76,100.76,0,0,1-1.45,15.25l-5.44-1a96.09,96.09,0,0,0,1.36-14.3Zm-1.56-19.85-5.47.92a94.8,94.8,0,0,0-3.6-13.9l5.22-1.85A101.8,101.8,0,0,1,1768.26,856.94Zm-4.63-17-5.21,1.85a94.59,94.59,0,0,0-6-13l4.82-2.73A99.76,99.76,0,0,1,1763.63,839.94ZM1756.11,824l-4.81,2.73a95.36,95.36,0,0,0-8.15-11.82l4.26-3.52A100.47,100.47,0,0,1,1756.11,824ZM1701,962.3l-25.28-71.22c.25-.1.48-.22.71-.33l37.26,65.73A91.61,91.61,0,0,1,1701,962.3Zm13.82-3.82,2.73,4.82a99.76,99.76,0,0,1-13.93,6.38l-1.85-5.21A94.59,94.59,0,0,0,1714.86,958.48Zm-34.08-89.13,1.91-1.09c.06.12.11.23.16.35Zm2.84,1.43c0,.12.07.24.1.37l-2.17.36Zm-2.28-4.83.23.3-1.92,1.09Zm-3.16-.38,1.43-1.67.27.27Zm3.47-2.86c-.18-.2-.36-.38-.55-.56l49-57.47a93.75,93.75,0,0,1,9.79,9.94Zm-2.3-2.05c-.21-.16-.41-.33-.63-.47l38.3-65.12a92.85,92.85,0,0,1,11.36,8.1Zm-2.62-1.63-.7-.35,26.41-70.8a92.7,92.7,0,0,1,12.59,6Zm-.3,5,1.12-1.9.31.24Zm1.22,23.32-.3.23-1.09-1.92Zm2.06-1.73-.28.27-1.4-1.7Zm-.19-3.18,1.91,1.12-.24.31Zm1.17-2,2.06.77c0,.11-.11.23-.17.34Zm.8-2.16,2.17.4c0,.13-.07.25-.1.37Zm.42-2.26,2.2,0c0,.13,0,.26,0,.38Zm0-2.3,2.18-.37c0,.13,0,.26,0,.39Zm1.64-8.66c-.14-.22-.3-.43-.46-.64l58.27-48.1a93.7,93.7,0,0,1,7.92,11.49ZM1746,809.63l-4.28,3.53a95.28,95.28,0,0,0-10.06-10.23l3.59-4.22A103.59,103.59,0,0,1,1746,809.63Zm-12.5-12.41-3.58,4.2a95.66,95.66,0,0,0-11.69-8.34l2.81-4.76A100.64,100.64,0,0,1,1733.45,797.22Zm-28.27-16.68a100.34,100.34,0,0,1,13.83,6.61l-2.81,4.77a95.65,95.65,0,0,0-13-6.2Zm-16.92-4.9a101.3,101.3,0,0,1,14.77,4.09l-1.94,5.19a95.55,95.55,0,0,0-13.84-3.83Zm12,11.44-26.42,70.8c-.25-.08-.5-.14-.76-.2l13.72-74.33A92,92,0,0,1,1700.29,787.08Zm-25.84,75.83.77-2.06.34.17Zm.89,25.83-.35.16-.73-2.07Zm-4.6-115a100.76,100.76,0,0,1,15.25,1.45l-1,5.44a96.09,96.09,0,0,0-14.3-1.36Zm-.07,7.84a92.2,92.2,0,0,1,13.9,1.31l-13.72,74.32-.78-.06Zm1.62,80.49.4-2.17.37.1Zm.53,27.57-.37.09-.36-2.17Zm-2.77-30.19.38,0-.4,2.18Zm-.24,30.08.08.61h-.09Zm0,2.91c.14,0,.27,0,.41,0l9.86,74.91a93,93,0,0,1-10.87.68Zm-.62,77.88a96.17,96.17,0,0,0,11.19-.71l.72,5.5a100.4,100.4,0,0,1-12,.74Zm-.72-196.6,0,5.54a95.16,95.16,0,0,0-14.31,1.12l-.92-5.46A102.51,102.51,0,0,1,1668.44,773.76Zm-3.18,113.79-.4,2.16-.37-.1Zm-.53-27.57.37-.1.36,2.17Zm2,32.42.78.06-.6,75.58a94.83,94.83,0,0,1-11.76-1l8.93-60.29Zm.42-2.26.4-2.18,0,2.2Zm.24-30.65c.13,0,.26,0,.39,0l0,2.2Zm-.38-2.27-12.52-74.53a93.8,93.8,0,0,1,13.91-1.09l-.6,75.57C1667.5,857.18,1667.24,857.19,1667,857.22Zm-14.79-74.14,12.53,74.53-.77.19-25.27-71.22A92.34,92.34,0,0,1,1652.19,783.08Zm10,77.83.35-.16.73,2.07Zm.89,25.83-.77,2.06-.34-.17ZM1640.18,912v-1.85l2.26-2.65h2.24V912ZM1642,918l-3.22,5.47V918Zm.29-49.26-65-12a91.49,91.49,0,0,1,3.73-13.45l61.34,22.88Zm.19-2.52,9.32,3.48c-.08.25-.14.51-.2.76l-9.08-1.67Zm0-2.47,0-1.21,0,1.19-60.59-22.6a91.52,91.52,0,0,1,6-12.59l65.13,38.3c-.12.23-.24.47-.35.71ZM1589,826.58a94,94,0,0,1,8.11-11.36l57.49,49c-.16.21-.33.42-.47.63Zm64.88,44.33c0-.12.07-.25.1-.37l2.07.77Zm1.75,2.66-2.2,0c0-.12,0-.26,0-.38Zm-.84-5.19c0-.11.11-.23.17-.34l1.89,1.11Zm1.32-2.33.24-.3,1.66,1.42Zm1.72-2.06.28-.27,1.4,1.7Zm.59-3.5-48.1-58.27a93.7,93.7,0,0,1,11.49-7.92L1659.07,860C1658.85,860.17,1658.64,860.33,1658.43,860.49Zm-1.78,1.46-.56.55-57.46-49a92.81,92.81,0,0,1,9.94-9.79Zm-1,13.92-2.18.37c0-.13,0-.26,0-.39Zm.39,2.27-2.08.74c0-.13-.07-.25-.1-.38Zm.76,2.17-1.91,1.08c-.06-.12-.11-.23-.16-.35Zm1.14,2-1.7,1.4a3.55,3.55,0,0,0-.23-.31Zm1.46,1.77-1.43,1.68-.27-.28Zm1.45,6.54.71.35-7.7,20.62V902.5Zm.3-5-1.12,1.9c-.11-.08-.2-.16-.31-.23Zm-1.22-23.32.3-.22,1.09,1.91Zm1.18-3.35-37.26-65.74a93.45,93.45,0,0,1,12.69-5.82l25.28,71.22A7.75,7.75,0,0,0,1661.08,858.91Zm-10.19-83.57.92,5.47a94.47,94.47,0,0,0-13.9,3.6l-1.85-5.21A100.24,100.24,0,0,1,1650.89,775.34Zm-17,4.63,1.85,5.21a94.59,94.59,0,0,0-13,6l-2.73-4.82A100.92,100.92,0,0,1,1633.89,780ZM1618,787.49l2.73,4.81a95.36,95.36,0,0,0-11.82,8.15l-3.52-4.26A100.47,100.47,0,0,1,1618,787.49Zm-14.38,10.16,3.53,4.28A95.28,95.28,0,0,0,1596.88,812l-4.22-3.59A102.64,102.64,0,0,1,1603.58,797.65Zm-12.41,12.5,4.2,3.58a95.66,95.66,0,0,0-8.34,11.69l-4.76-2.81A100.64,100.64,0,0,1,1591.17,810.15ZM1581.1,824.6l4.77,2.8a95.21,95.21,0,0,0-6.2,13l-5.18-1.94A100.77,100.77,0,0,1,1581.1,824.6Zm-7.42,16,5.19,1.93a95.55,95.55,0,0,0-3.83,13.84l-5.45-1A101,101,0,0,1,1573.68,840.58Zm-4.5,17,5.44,1a96.22,96.22,0,0,0-1.36,14.3l-5.53,0A100.76,100.76,0,0,1,1569.18,857.61Zm-1.47,17.56,5.54,0a94.1,94.1,0,0,0,1.12,14.32l-5.46.91A102.48,102.48,0,0,1,1567.71,875.17Zm1.58,17.54,5.47-.92a93.24,93.24,0,0,0,3.6,13.9l-5.21,1.86A100.69,100.69,0,0,1,1569.29,892.71Zm4.63,17,5.21-1.85a94.59,94.59,0,0,0,6,13l-4.82,2.73A100.92,100.92,0,0,1,1573.92,909.71ZM1607.44,945a93.3,93.3,0,0,1-9.48-9.59h17.66Zm.24,3.26a95.66,95.66,0,0,0,11.69,8.34l-2.81,4.77a102.78,102.78,0,0,1-12.46-8.9Zm-1.74-1.51-3.59,4.22A101.71,101.71,0,0,1,1591.6,940l4.28-3.53A95.28,95.28,0,0,0,1605.94,946.72Zm-15.8-8.47c-.76-.94-1.5-1.9-2.23-2.87h5.7Zm-8.22-11.82c-.16-.27-.33-.52-.48-.79l4.81-2.72c.69,1.18,1.42,2.35,2.16,3.51Zm40.37,81H1516.9v-11.8h0l5.65-1.5V984h1.87v9.64l5.44-1.43V984h1.87v7.71l5.44-1.43V984H1539v5.79l5.44-1.44V984h1.87v3.85l5.44-1.43V984h1.87v1.92l15.93-4.2,15.93,4.2V984h1.88v2.42l5.43,1.43V984h1.88v4.35l5.43,1.44V984H1602v6.28l5.44,1.43V984h1.87v8.21l5.44,1.43V984h1.87v10.13l5.65,1.5h0Zm6.49-28.66a6.38,6.38,0,0,0-1.08-.12,5.65,5.65,0,0,0-4.91,2.8h-.5v.72h0v-.72H1508.14v-46h53.58a5.64,5.64,0,0,0,9.42,0h8.3c1.7,2.5,3.48,4.92,5.38,7.26l-2.59,2.14a5.58,5.58,0,0,0-3.49-1.28,5.65,5.65,0,1,0,5.6,5.69,5.57,5.57,0,0,0-.65-2.63l2.59-2.15a109.26,109.26,0,0,0,11.59,11.78l-2.3,2.69-.19.22a5.6,5.6,0,0,0-2.57-.65,5.66,5.66,0,1,0,4.5,2.31l2.31-3.07a109.29,109.29,0,0,0,13.45,9.59l-1.77,3a5.8,5.8,0,0,0-2-.4,5.65,5.65,0,1,0,5.6,5.69,5.57,5.57,0,0,0-1.94-4.27l.32.18,1.78-3a106.89,106.89,0,0,0,14.91,7.13Zm2.26,1-.14-.12.14-.39Zm0-11.19a101.36,101.36,0,0,1-12.49-6.06l2.8-4.78a95.28,95.28,0,0,0,9.69,4.86Zm0-8.5a93.19,93.19,0,0,1-8.52-4.32l8.52-14.5Zm0-23.36-10.51,17.88a94,94,0,0,1-11.36-8.11l9.47-11.1H1631Zm0-10.28h-4.76l4.76-5.59Zm0-9.14-7.79,9.14h-15.18l23-19Zm0-12.81-26.58,21.95h-13.29c-1-1.52-2-3.07-2.92-4.65L1631,897.53v5.8h0Zm3.08-15-3.08,5.16v.28l-43.92,24.89a93.45,93.45,0,0,1-5.82-12.69l52.85-18.75Zm.07-3.57-53.66,19a92.34,92.34,0,0,1-3.5-13.51l57.24-9.62Zm.12-6.43-57.67,9.69a92.47,92.47,0,0,1-1.09-13.91l58.83.47Zm.16-8.7,0,2.65-58.86-.47a93.51,93.51,0,0,1,1.32-13.9l65.4,12.07,0,2.36-7.71-.06Zm.1,5,7.62.06,0,2.38-7.51,1.26Zm.11,6,7.42-1.25v.68l-1.46,2.44-5.88,2.09Zm8.45,58.56-2.71,7.25h-1.61v-7.25Zm-4.73-37h-.5v-1.5l.5-.41Zm0-4.89-.5.41v-4.21l-.43-.72.93-.53Zm0-11.08v3.39l-2.11,1.19-1.47-2.46,0-1.34,4-1.42Zm5.25,85.4q-2.45-.63-4.84-1.37V968h6Zm2.41-11.33h-7.25v-3l1.6-4.28h5.65Zm0-13.87h-3.18l2.7-7.25h.48Zm0-22.25h-5.62l4.26-7.25h1.36Zm.91-22h-.5v-.55l.5-.59Zm0-8.69v4l-.5.58v-4.47l.85-.7Zm3.09-5.83-3.59,3v-3l3.63-2.06Zm.09-4.72-4.21,2.38-1.13-1.89,5.37-1.9Zm.08-3.87-6.62,2.35-.82-1.39,0-.79,7.48-1.25Zm.06-3.42-7.56,1.27,0-2.27,7.63.06Zm.06-3.24-7.71-.06,0-2.31,7.77,1.44Zm.09-.92.76.14c0,.26,0,.52-.06.78h-.69Zm.06,3.22h.62c0,.26,0,.52,0,.78l-.65.11Zm.06,3.22,1-.16c.06.25.12.51.19.76l-1.17.42Zm.06,3.44,1.9-.67c.1.24.22.47.33.71l-2.21,1.25Zm.07,3.9,3.29-1.86c.14.22.3.43.46.64l-3.71,3.06Zm.76,4.23,4.45-3.67.55.56-4,4.73Zm6.75-1.62c.21.15.41.32.63.47l-5,8.5v-3.36l-.17-.29Zm-4.37,29.17,9.85-26.4.7.19-10.55,41.09Zm1,51.16a96,96,0,0,0,12.07,1l0,5.53a100.45,100.45,0,0,1-12.83-1.06Zm12,13.44,0,2.63a5.61,5.61,0,0,0-4.15,2.78v-5.57C1664,982.69,1665.36,982.75,1666.76,982.77Zm-4.17,24.62V993.8a5.64,5.64,0,1,0,6.45-8.23l0-2.78A110,110,0,0,0,1682,982l3.35,25.39Zm12.22-103.58-2-11.77.77-.19,25.27,71.22a92.05,92.05,0,0,1-9.23,2.63Zm15.37,64.12a94,94,0,0,0,9.46-2.69l1.85,5.22a99.13,99.13,0,0,1-10,2.86Zm34.63,39.46h-25.18L1693.08,980A109.83,109.83,0,0,0,1703.8,977l1.1,3.09a5.63,5.63,0,1,0,3.34-1.08,5.59,5.59,0,0,0-1.23.14l-1-2.92a106.4,106.4,0,0,0,15-6.89l1.49,2.63a5.65,5.65,0,0,0,2.33,9.35Zm0-36.88-.41.14-1.41-2.48c.61-.36,1.21-.74,1.82-1.11Zm0-11.63c-1.71,1.14-3.44,2.24-5.22,3.28l-2.73-4.81q4.11-2.4,8-5.2Zm0-9.58a93.6,93.6,0,0,1-9.08,6.05l-37.25-65.73c.22-.14.43-.3.64-.46l45.69,55.35Zm0-8.41L1680.9,887.7l.55-.55,43.36,37Zm0-19.79-41.87-35.7c.16-.21.33-.41.47-.63l41.39,24.34v8h0Zm-40.24-38.32c.12-.23.24-.46.35-.7L1724.8,897v9.48Zm40.23,5.89h-3.65v3.75h3.65v2.08l-39.08-14.58c.08-.25.14-.5.2-.76l40.53,7.48Zm3.31-4.06-41.76-7.71c0-.26,0-.52.06-.78l48.31.39Zm7.61-19.34a2.86,2.86,0,0,0-.2,5.49l-.13,3.45-49-.39c0-.26,0-.53,0-.79l49.36-8.29Zm.11-2.88L1686,870.77c-.06-.26-.12-.51-.19-.77l50.41-17.89Zm.59-16.08-.12,3.33L1685,867.84c-.1-.24-.22-.48-.33-.71l65.73-37.26a94,94,0,0,1,5.82,12.69l-19.71,7Zm.21,5.65,20.39-7.23a92.34,92.34,0,0,1,3.5,13.51l-23.51,4Zm.7,18.8a2.86,2.86,0,0,0-.2-5.49l0-.76,23.81-4a93.9,93.9,0,0,1,1.09,13.91l-24.54-.19Zm.81,5.77,23.85.2a93.51,93.51,0,0,1-1.32,13.89l-9-1.65v-.3h-1.6l-2.42-.45Zm22.39,40.63h-4.75v7.5l-3.65-2.15v-1.07a95.63,95.63,0,0,0,5.75-12.14l5.18,1.93C1762.28,913.24,1761.43,915.21,1760.53,917.16Zm1.11,49.59v8.1h-6.56v-8.1a3.28,3.28,0,1,1,6.56,0Zm-9.12-41.34h-.39v-.23Zm4-19.07-8.48-3.17V892.42h3.66V891.3l8.55,1.58A92,92,0,0,1,1756.52,906.34Zm-8.48-.71,7.68,2.86a91.39,91.39,0,0,1-3.91,8.67H1748Zm16.88,101.76H1751.8V993.55a6.56,6.56,0,1,1,13.12,0Zm-1.05-98.31-5.19-1.94a95.55,95.55,0,0,0,3.83-13.84l5.45,1A101.3,101.3,0,0,1,1763.87,909.08Zm7.94,8.08v8.25h-3.66v-8.25h-.06c.5-1.16,1-2.33,1.44-3.52l3.27,1.22.12-.33a7,7,0,0,0-.07.8,5.85,5.85,0,0,0,.3,1.83Zm12.39,49.59a3.28,3.28,0,0,1,5.6-2.33,3.31,3.31,0,0,1,1,2.33v8.1h-6.56Zm9.84,40.64h-13.13V993.55a6.57,6.57,0,1,1,13.13,0Zm19.27-40.64a3.29,3.29,0,1,1,6.57,0v8.1h-6.57Zm9.84,40.64H1810V993.55a6.56,6.56,0,1,1,13.12,0Zm19.28-40.64a3.28,3.28,0,1,1,6.56,0v8.1h-6.56Zm9.84,40.64h-13.12V993.55a6.56,6.56,0,1,1,13.12,0Z"/><rect class="cls-1" x="-0.5" y="-0.5" width="1921" height="1080"/><text class="cls-8" transform="translate(766.03 949.86)">E<tspan class="cls-9" x="63.36" y="0">V</tspan><tspan class="cls-10" x="130.28" y="0">EN</tspan><tspan class="cls-11" x="267.56" y="0">T</tspan><tspan class="cls-12" x="326.63" y="0">S</tspan></text></g><text class="cls-13" transform="translate(766.03 948.86)">E<tspan class="cls-9" x="63.36" y="0">V</tspan><tspan class="cls-10" x="130.28" y="0">EN</tspan><tspan class="cls-11" x="267.56" y="0">T</tspan><tspan class="cls-12" x="326.63" y="0">S</tspan></text></g></g></svg>