<?xml version="1.0" encoding="UTF-8"?>
<svg xmlns="http://www.w3.org/2000/svg" width="512" height="512" viewBox="0 0 512 512"><g><path d="M476,40H36A28.031,28.031,0,0,0,8,68V380a28.031,28.031,0,0,0,28,28H196.18l-9.6,24H152a8,8,0,0,0-8,8v24a8,8,0,0,0,8,8H360a8,8,0,0,0,8-8V440a8,8,0,0,0-8-8H325.42l-9.6-24H476a28.031,28.031,0,0,0,28-28V68A28.031,28.031,0,0,0,476,40ZM352,448v8H160v-8ZM203.82,432l9.6-24h85.16l9.6,24ZM488,380a12.01,12.01,0,0,1-12,12H36a12.01,12.01,0,0,1-12-12V368H488Zm0-28H24V304H488Zm0-64H24V68A12.01,12.01,0,0,1,36,56H476a12.01,12.01,0,0,1,12,12Z"/><path d="M368,320H200a8,8,0,0,0-16,0H144a8,8,0,0,0,0,16h40a8,8,0,0,0,16,0H368a8,8,0,0,0,0-16Z"/><path d="M60,272H212a28.032,28.032,0,0,0,28-28V92a28.032,28.032,0,0,0-28-28H60A28.032,28.032,0,0,0,32,92V244A28.032,28.032,0,0,0,60,272ZM176,96V80h16V96Zm-16,0H144V80h16Zm-32,0H112V80h16ZM96,96H80V80H96Zm128,16V224H48V112ZM96,240v16H80V240Zm16,0h16v16H112Zm32,0h16v16H144Zm32,0h16v16H176ZM48,244v-4H64v16H60A12.013,12.013,0,0,1,48,244Zm164,12h-4V240h16v4A12.013,12.013,0,0,1,212,256ZM224,92v4H208V80h4A12.013,12.013,0,0,1,224,92ZM60,80h4V96H48V92A12.013,12.013,0,0,1,60,80Z"/><path d="M99.794,206.805a8,8,0,0,0,7.784.35l64-32a8,8,0,0,0,0-14.31l-64-32A8,8,0,0,0,96,136v64A8,8,0,0,0,99.794,206.805ZM112,148.944,150.111,168,112,187.056Z"/><path d="M256,272H472a8,8,0,0,0,8-8V72a8,8,0,0,0-8-8H256a8,8,0,0,0-8,8V264A8,8,0,0,0,256,272Zm8-192H464V256H264Z"/><path d="M440,112H424a8,8,0,0,0-16,0H288a8,8,0,0,0,0,16H408a8,8,0,0,0,16,0h16a8,8,0,0,0,0-16Z"/><path d="M440,160H376a8,8,0,0,0-16,0H288a8,8,0,0,0,0,16h72a8,8,0,0,0,16,0h64a8,8,0,0,0,0-16Z"/><path d="M440,208H312a8,8,0,0,0-16,0h-8a8,8,0,0,0,0,16h8a8,8,0,0,0,16,0H440a8,8,0,0,0,0-16Z"/></g></svg>
