<svg xmlns="http://www.w3.org/2000/svg" xmlns:xlink="http://www.w3.org/1999/xlink" viewBox="0 0 1920 1080"><defs><style>.cls-1{fill:none;}.cls-2{isolation:isolate;}.cls-3{clip-path:url(#clip-path);}.cls-4,.cls-5,.cls-6,.cls-8,.cls-9{mix-blend-mode:multiply;}.cls-4{fill:url(#radial-gradient);}.cls-5{fill:url(#radial-gradient-2);}.cls-6{fill:url(#radial-gradient-3);}.cls-10,.cls-7{fill:#fff;}.cls-7{opacity:0.71;}.cls-8{fill:url(#radial-gradient-4);}.cls-9{fill:url(#radial-gradient-5);}.cls-10{opacity:0.79;}</style><clipPath id="clip-path"><rect class="cls-1" width="1920" height="1080"/></clipPath><radialGradient id="radial-gradient" cx="-4630.23" cy="975.08" r="508.32" gradientTransform="matrix(-0.63, -0.78, 0.78, -0.63, -2034.57, -2829.03)" gradientUnits="userSpaceOnUse"><stop offset="0" stop-color="#05a9c2"/><stop offset="0.03" stop-color="#05a9c2" stop-opacity="0.91"/><stop offset="0.1" stop-color="#05a9c2" stop-opacity="0.69"/><stop offset="0.18" stop-color="#05a9c2" stop-opacity="0.51"/><stop offset="0.26" stop-color="#05a9c2" stop-opacity="0.35"/><stop offset="0.35" stop-color="#05a9c2" stop-opacity="0.22"/><stop offset="0.45" stop-color="#05a9c2" stop-opacity="0.12"/><stop offset="0.57" stop-color="#05a9c2" stop-opacity="0.05"/><stop offset="0.72" stop-color="#05a9c2" stop-opacity="0.01"/><stop offset="1" stop-color="#05a9c2" stop-opacity="0"/></radialGradient><radialGradient id="radial-gradient-2" cx="-3968.86" cy="918.42" r="508.32" gradientTransform="matrix(-0.63, -0.78, 0.78, -0.63, -2236.76, -2362.94)" xlink:href="#radial-gradient"/><radialGradient id="radial-gradient-3" cx="-3294.29" cy="832.73" r="508.32" gradientTransform="translate(-3060.51 644.19) rotate(-174.15)" xlink:href="#radial-gradient"/><radialGradient id="radial-gradient-4" cx="-4453.89" cy="1088.06" r="508.32" gradientTransform="translate(-3060.51 644.19) rotate(-174.15)" xlink:href="#radial-gradient"/><radialGradient id="radial-gradient-5" cx="-3567.56" cy="999.52" r="508.32" gradientTransform="translate(-3060.51 644.19) rotate(-174.15)" xlink:href="#radial-gradient"/></defs><g class="cls-2"><g id="Layer_1" data-name="Layer 1"><g class="cls-3"><circle class="cls-4" cx="1645.01" cy="146" r="508.32" transform="translate(378.57 1205.96) rotate(-45)"/><circle class="cls-5" cx="981.3" cy="134.97" r="508.33" transform="translate(191.97 733.41) rotate(-45)"/><circle class="cls-6" cx="301.5" cy="151.47" r="508.33"/><path class="cls-7" d="M1939.89,165.31l-4-314.55H-56.53V297.83a101.81,101.81,0,0,0,18.6,1.71A101.05,101.05,0,0,0,.7,291.94c21.73,35.41,61.74,59.17,107.51,59.17,69,0,124.86-53.87,124.86-120.34,0-2-.06-4.07-.16-6.09a101.35,101.35,0,0,0,34.69,6.09c39.21,0,73-22.17,88.76-54.2a75.17,75.17,0,0,0,123.32-3.2,103,103,0,0,0,137.5,13.7c17.08,46.83,63.36,80.39,117.79,80.39,58.53,0,107.65-38.81,121.14-91.22a127.06,127.06,0,0,0,83.58,30.95,129.8,129.8,0,0,0,33.18-4.32c22.4,32.36,60.57,53.69,103.95,53.69,56,0,103.4-35.54,119.23-84.49a128.27,128.27,0,0,0,57.46,13.52c41.5,0,78.24-19.54,101-49.57,17.48,28.47,49.65,47.59,86.47,47.59a101.75,101.75,0,0,0,75.24-32.74A87.06,87.06,0,0,0,1629.42,144c21.09,37.66,62.4,63.23,109.93,63.23,43.94,0,82.56-21.89,104.8-55a127.89,127.89,0,0,0,62.8,16.34C1916.91,168.56,1930.59,167.43,1939.89,165.31Z"/><circle class="cls-8" cx="1481.09" cy="15.64" r="508.33"/><circle class="cls-9" cx="590.35" cy="13.4" r="508.33"/><path class="cls-10" d="M-56.53,95l4-244.26H1935.91l4,358.73a117.17,117.17,0,0,1-57.22-5.08c-21.73,30.58-61.74,51.11-107.51,51.11-69,0-124.86-46.54-124.86-104,0-1.77,0-3.52.16-5.27a115.77,115.77,0,0,1-34.7,5.27c-39.21,0-73-19.15-88.75-46.82-13.29,16-35.44,26.45-60.57,26.45-26.54,0-49.79-11.7-62.75-29.22-18.41,17.87-45.72,29.22-76.22,29.22-23.09,0-44.31-6.5-61.29-17.39-17.08,40.46-63.36,69.45-117.79,69.45-58.52,0-107.64-33.53-121.14-78.8-22.13,16.61-51.43,26.74-83.58,26.74a149.22,149.22,0,0,1-33.18-3.74c-22.39,28-60.57,46.38-104,46.38-56,0-103.39-30.7-119.22-73a144.93,144.93,0,0,1-57.47,11.68c-41.49,0-78.23-16.87-101-42.82-17.48,24.6-49.65,41.12-86.47,41.12-30,0-56.85-11-75.23-28.29-14.48,9.56-32.76,15.28-52.66,15.28-23.75,0-45.21-8.13-60.59-21.25C232.85,109.1,191.54,131.2,144,131.2c-43.94,0-82.57-18.91-104.8-47.49a143.89,143.89,0,0,1-62.8,14.11C-33.55,97.82-47.23,96.85-56.53,95Z"/><rect class="cls-1" width="1920" height="1080"/></g></g></g></svg>