<svg xmlns="http://www.w3.org/2000/svg" xmlns:xlink="http://www.w3.org/1999/xlink" viewBox="0 0 1920 1080"><defs><style>.cls-1{fill:none;}.cls-2{isolation:isolate;}.cls-3{clip-path:url(#clip-path);}.cls-4,.cls-5,.cls-6,.cls-8,.cls-9{mix-blend-mode:multiply;}.cls-4{fill:url(#radial-gradient);}.cls-5{fill:url(#radial-gradient-2);}.cls-6{fill:url(#radial-gradient-3);}.cls-10,.cls-7{fill:#fff;}.cls-7{opacity:0.71;}.cls-8{fill:url(#radial-gradient-4);}.cls-9{fill:url(#radial-gradient-5);}.cls-10{opacity:0.79;}</style><clipPath id="clip-path"><rect class="cls-1" x="-1" y="2" width="1921" height="1078"/></clipPath><radialGradient id="radial-gradient" cx="-4564" cy="971.44" r="508.32" gradientTransform="matrix(-0.63, -0.78, 0.78, -0.63, -1990.36, -2779.73)" gradientUnits="userSpaceOnUse"><stop offset="0" stop-color="#1371dc"/><stop offset="0.01" stop-color="#1371dc" stop-opacity="0.98"/><stop offset="0.11" stop-color="#1673dc" stop-opacity="0.76"/><stop offset="0.22" stop-color="#1874dd" stop-opacity="0.55"/><stop offset="0.33" stop-color="#1a75dd" stop-opacity="0.38"/><stop offset="0.44" stop-color="#1c76de" stop-opacity="0.24"/><stop offset="0.56" stop-color="#1d77de" stop-opacity="0.14"/><stop offset="0.69" stop-color="#1e78de" stop-opacity="0.06"/><stop offset="0.83" stop-color="#1f78de" stop-opacity="0.01"/><stop offset="1" stop-color="#1f78de" stop-opacity="0"/></radialGradient><radialGradient id="radial-gradient-2" cx="-3902.62" cy="914.78" r="508.32" gradientTransform="matrix(-0.63, -0.78, 0.78, -0.63, -2192.55, -2313.65)" xlink:href="#radial-gradient"/><radialGradient id="radial-gradient-3" cx="-3228.05" cy="829.09" r="508.32" gradientTransform="translate(-2994.68 647.55) rotate(-174.15)" xlink:href="#radial-gradient"/><radialGradient id="radial-gradient-4" cx="-4387.65" cy="1084.42" r="508.32" gradientTransform="translate(-2994.68 647.55) rotate(-174.15)" xlink:href="#radial-gradient"/><radialGradient id="radial-gradient-5" cx="-3501.33" cy="995.88" r="508.32" gradientTransform="translate(-2994.68 647.55) rotate(-174.15)" xlink:href="#radial-gradient"/></defs><g class="cls-2"><g id="Layer_1" data-name="Layer 1"><g class="cls-3"><circle class="cls-4" cx="1644.58" cy="146.24" r="508.32" transform="translate(378.28 1205.72) rotate(-45)"/><circle class="cls-5" cx="980.86" cy="135.21" r="508.33" transform="translate(191.68 733.18) rotate(-45)"/><circle class="cls-6" cx="301.07" cy="151.71" r="508.33"/><path class="cls-7" d="M1939.46,165.54l-4-314.55H-57V298.06a100.94,100.94,0,0,0,18.6,1.72A101.06,101.06,0,0,0,.27,292.17C22,327.58,62,351.34,107.78,351.34c69,0,124.86-53.87,124.86-120.33,0-2-.06-4.07-.16-6.1a101.36,101.36,0,0,0,34.69,6.1c39.21,0,73-22.17,88.76-54.2a75.17,75.17,0,0,0,123.32-3.2,103,103,0,0,0,137.5,13.69c17.08,46.83,63.36,80.4,117.79,80.4,58.53,0,107.65-38.82,121.14-91.23a127.06,127.06,0,0,0,83.58,31,129.8,129.8,0,0,0,33.18-4.33c22.39,32.36,60.57,53.69,104,53.69,56,0,103.39-35.54,119.23-84.49a128.27,128.27,0,0,0,57.46,13.52c41.5,0,78.24-19.54,101-49.57,17.48,28.47,49.65,47.6,86.47,47.6a101.75,101.75,0,0,0,75.24-32.75A87.06,87.06,0,0,0,1629,144.19c21.09,37.66,62.4,63.24,109.92,63.24,43.94,0,82.57-21.89,104.81-55a127.88,127.88,0,0,0,62.8,16.33C1916.48,168.79,1930.16,167.67,1939.46,165.54Z"/><circle class="cls-8" cx="1480.66" cy="15.87" r="508.33"/><circle class="cls-9" cx="589.92" cy="13.64" r="508.33"/><polygon class="cls-1" points="1919.49 1280.28 -0.51 1280.62 -0.51 0.62 1919.49 0.62 1919.49 1280.28"/><path class="cls-10" d="M-57,95.25-53-149H1935.47l4,358.74a117.12,117.12,0,0,1-18.6,1.48,115,115,0,0,1-38.62-6.57c-21.73,30.59-61.74,51.11-107.52,51.11-69,0-124.85-46.53-124.85-103.95,0-1.77.05-3.51.16-5.26a116.08,116.08,0,0,1-34.7,5.26c-39.21,0-73-19.15-88.76-46.82-13.28,16-35.43,26.45-60.57,26.45-26.53,0-49.78-11.7-62.74-29.21-18.41,17.87-45.72,29.21-76.22,29.21-23.09,0-44.31-6.5-61.29-17.38-17.08,40.45-63.36,69.45-117.79,69.45-58.53,0-107.65-33.53-121.14-78.81-22.13,16.61-51.43,26.74-83.58,26.74a149.22,149.22,0,0,1-33.18-3.73c-22.39,28-60.57,46.37-103.95,46.37-56,0-103.39-30.69-119.23-73a145,145,0,0,1-57.46,11.68c-41.49,0-78.23-16.88-100.95-42.82C511,94.54,478.82,111.06,442,111.06c-30,0-56.85-11-75.23-28.28a95.71,95.71,0,0,1-52.66,15.28c-23.75,0-45.21-8.14-60.59-21.26-21.1,32.54-62.41,54.63-109.93,54.63C99.65,131.43,61,112.52,38.79,84A144.08,144.08,0,0,1-24,98.06C-34,98.06-47.66,97.08-57,95.25Z"/><rect class="cls-1" y="2" width="1920" height="1078"/><rect class="cls-1" width="1920" height="1080"/></g></g></g></svg>