<svg xmlns="http://www.w3.org/2000/svg" xmlns:xlink="http://www.w3.org/1999/xlink" viewBox="0 0 1920 1080"><defs><style>.cls-1{fill:none;}.cls-2{isolation:isolate;}.cls-3{clip-path:url(#clip-path);}.cls-4{clip-path:url(#clip-path-2);}.cls-10,.cls-5,.cls-6,.cls-7,.cls-9{mix-blend-mode:multiply;}.cls-5{fill:url(#radial-gradient);}.cls-6{fill:url(#radial-gradient-2);}.cls-7{fill:url(#radial-gradient-3);}.cls-11,.cls-8{fill:#fff;}.cls-8{opacity:0.71;}.cls-9{fill:url(#radial-gradient-4);}.cls-10{fill:url(#radial-gradient-5);}.cls-11{opacity:0.79;}</style><clipPath id="clip-path"><rect class="cls-1" width="1920" height="574"/></clipPath><clipPath id="clip-path-2"><rect class="cls-1" width="1920" height="1080"/></clipPath><radialGradient id="radial-gradient" cx="-4654.71" cy="976.21" r="508.32" gradientTransform="matrix(-0.63, -0.78, 0.78, -0.63, -2050.37, -2847.15)" gradientUnits="userSpaceOnUse"><stop offset="0" stop-color="#aa0607"/><stop offset="0" stop-color="#aa0607" stop-opacity="0.99"/><stop offset="0.12" stop-color="#aa0607" stop-opacity="0.73"/><stop offset="0.25" stop-color="#aa0607" stop-opacity="0.51"/><stop offset="0.38" stop-color="#aa0607" stop-opacity="0.32"/><stop offset="0.52" stop-color="#aa0607" stop-opacity="0.18"/><stop offset="0.66" stop-color="#aa0607" stop-opacity="0.08"/><stop offset="0.81" stop-color="#aa0607" stop-opacity="0.02"/><stop offset="1" stop-color="#aa0607" stop-opacity="0"/></radialGradient><radialGradient id="radial-gradient-2" cx="-3993.34" cy="919.55" r="508.32" gradientTransform="matrix(-0.63, -0.78, 0.78, -0.63, -2252.56, -2381.07)" xlink:href="#radial-gradient"/><radialGradient id="radial-gradient-3" cx="-3318.77" cy="833.86" r="508.32" gradientTransform="translate(-3084.45 642.96) rotate(-174.15)" xlink:href="#radial-gradient"/><radialGradient id="radial-gradient-4" cx="-4478.37" cy="1089.19" r="508.32" gradientTransform="translate(-3084.45 642.96) rotate(-174.15)" xlink:href="#radial-gradient"/><radialGradient id="radial-gradient-5" cx="-3592.04" cy="1000.65" r="508.32" gradientTransform="translate(-3084.45 642.96) rotate(-174.15)" xlink:href="#radial-gradient"/></defs><g class="cls-2"><g id="Layer_1" data-name="Layer 1"><g class="cls-3"><g class="cls-4"><circle class="cls-5" cx="1645.54" cy="146.15" r="508.32" transform="translate(378.62 1206.38) rotate(-45)"/><circle class="cls-6" cx="981.83" cy="135.12" r="508.33" transform="translate(192.03 733.83) rotate(-45)"/><circle class="cls-7" cx="302.04" cy="151.62" r="508.33"/><path class="cls-8" d="M1940.42,165.46l-4-314.55H-56V298a101.7,101.7,0,0,0,18.59,1.71,101,101,0,0,0,38.63-7.6C23,327.5,63,351.26,108.74,351.26c69,0,124.86-53.87,124.86-120.34,0-2,0-4.07-.16-6.09a101.45,101.45,0,0,0,34.7,6.09c39.21,0,73-22.17,88.75-54.2a75.17,75.17,0,0,0,123.32-3.2,103.06,103.06,0,0,0,137.51,13.7c17.08,46.83,63.35,80.39,117.79,80.39,58.52,0,107.64-38.81,121.14-91.22a127,127,0,0,0,83.57,31A129.74,129.74,0,0,0,973.4,203c22.4,32.36,60.57,53.68,104,53.68,56,0,103.39-35.53,119.22-84.49A128.17,128.17,0,0,0,1254,185.73c41.5,0,78.24-19.53,101-49.56,17.48,28.47,49.66,47.59,86.48,47.59A101.72,101.72,0,0,0,1516.7,151,87,87,0,0,0,1630,144.1c21.09,37.66,62.4,63.24,109.93,63.24,43.94,0,82.57-21.89,104.8-55a127.89,127.89,0,0,0,62.8,16.34C1917.44,168.71,1931.13,167.58,1940.42,165.46Z"/><circle class="cls-9" cx="1481.62" cy="15.79" r="508.33"/><circle class="cls-10" cx="590.89" cy="13.55" r="508.33"/><path class="cls-11" d="M-56,95.16l4-244.25H1936.44l4,358.73a117,117,0,0,1-18.59,1.48,114.85,114.85,0,0,1-38.63-6.57c-21.73,30.59-61.74,51.12-107.51,51.12-69,0-124.86-46.54-124.86-103.95,0-1.77.05-3.52.16-5.27a115.77,115.77,0,0,1-34.7,5.27c-39.21,0-73-19.16-88.75-46.83-13.28,16-35.44,26.46-60.57,26.46-26.54,0-49.79-11.7-62.75-29.22-18.41,17.87-45.72,29.22-76.22,29.22-23.08,0-44.31-6.51-61.28-17.39-17.09,40.45-63.36,69.45-117.8,69.45-58.52,0-107.64-33.53-121.14-78.8-22.13,16.61-51.43,26.74-83.57,26.74A149.15,149.15,0,0,1,911,127.61c-22.4,28-60.57,46.38-103.95,46.38-56,0-103.4-30.7-119.23-73a145.05,145.05,0,0,1-57.46,11.68c-41.5,0-78.24-16.88-100.95-42.82C512,94.46,479.79,111,443,111c-30,0-56.86-11-75.24-28.29A95.68,95.68,0,0,1,315.08,98c-23.75,0-45.22-8.14-60.6-21.25-21.09,32.53-62.4,54.63-109.93,54.63-43.94,0-82.56-18.91-104.8-47.49A143.86,143.86,0,0,1-23,98C-33,98-46.69,97-56,95.16Z"/><rect class="cls-1" width="1920" height="1080"/></g></g></g></g></svg>