<svg xmlns="http://www.w3.org/2000/svg" xmlns:xlink="http://www.w3.org/1999/xlink" viewBox="0 0 1920 1080"><defs><style>.cls-1{fill:none;}.cls-2{isolation:isolate;}.cls-3{clip-path:url(#clip-path);}.cls-4,.cls-5,.cls-6{mix-blend-mode:multiply;}.cls-4{fill:url(#radial-gradient);}.cls-5{fill:url(#radial-gradient-2);}.cls-6{fill:url(#radial-gradient-3);}.cls-10,.cls-11,.cls-12,.cls-7,.cls-8,.cls-9{fill:#fff;}.cls-8{opacity:0.48;}.cls-9{opacity:0.23;}.cls-10{opacity:0.17;}.cls-11{opacity:0.27;}.cls-12{font-size:66px;font-family:Montserrat-SemiBold, Montserrat;font-weight:600;letter-spacing:0.28em;}.cls-13{letter-spacing:0.3em;}.cls-14{letter-spacing:0.27em;}.cls-15{letter-spacing:0.29em;}.cls-16{letter-spacing:0.29em;}.cls-17{letter-spacing:0.3em;}</style><clipPath id="clip-path"><rect class="cls-1" y="567" width="1920" height="513"/></clipPath><radialGradient id="radial-gradient" cx="-4766.89" cy="-3688.12" r="427.87" gradientTransform="matrix(-1.01, -0.1, 0.1, -0.99, -2931.44, -3218.97)" gradientUnits="userSpaceOnUse"><stop offset="0" stop-color="#aa0607"/><stop offset="0.1" stop-color="#aa0607" stop-opacity="0.8"/><stop offset="0.24" stop-color="#aa0607" stop-opacity="0.55"/><stop offset="0.39" stop-color="#aa0607" stop-opacity="0.35"/><stop offset="0.53" stop-color="#aa0607" stop-opacity="0.2"/><stop offset="0.68" stop-color="#aa0607" stop-opacity="0.09"/><stop offset="0.83" stop-color="#aa0607" stop-opacity="0.02"/><stop offset="1" stop-color="#aa0607" stop-opacity="0"/></radialGradient><radialGradient id="radial-gradient-2" cx="-4324.64" cy="-3821.51" r="427.87" xlink:href="#radial-gradient"/><radialGradient id="radial-gradient-3" cx="-3718.81" cy="-3835.08" r="427.87" xlink:href="#radial-gradient"/></defs><g class="cls-2"><g id="Layer_1" data-name="Layer 1"><g class="cls-3"><polygon class="cls-1" points="120.49 893.77 120.49 892.4 120.49 889.33 120.49 889.33 120.49 882.39 86.31 882.39 86.31 888.92 86.31 888.92 86.31 889.33 86.31 889.33 86.31 893.77 86.31 908.91 120.49 908.91 120.49 893.77"/><polygon class="cls-1" points="139.87 961.24 129.22 959.62 122.84 959.62 122.84 984.07 139.87 984.07 139.87 961.24"/><rect class="cls-1" x="103.13" y="959.62" width="18.43" height="24.45"/><polygon class="cls-1" points="120.96 849.73 120.96 848.59 120.96 846.05 120.96 840.31 92.69 840.31 92.69 845.71 92.69 845.71 92.69 846.05 92.69 849.73 92.69 862.36 120.96 862.36 120.96 849.73"/><rect class="cls-1" x="62.83" y="962.77" width="11.56" height="13.2"/><rect class="cls-1" x="76.73" y="962.77" width="11.56" height="13.2"/><ellipse class="cls-4" cx="1501.8" cy="935.73" rx="434.43" ry="427.87"/><ellipse class="cls-5" cx="1041.3" cy="1023.35" rx="434.43" ry="427.87"/><ellipse class="cls-6" cx="427.97" cy="975.11" rx="434.43" ry="427.87"/><rect class="cls-7" x="-3.08" y="1004.14" width="1952.98" height="113.37"/><path class="cls-1" d="M1522.14,927.48h5.7V916.74H1530V872.05a9.82,9.82,0,0,0-2.59.16c0,.06.13,1.63.2,2.35a4.22,4.22,0,0,0,1.17,0c.41-.08.57-.65.54-1.07a8,8,0,0,1,.11,1.62.36.36,0,0,1-.05.23.33.33,0,0,1-.27.08,15.7,15.7,0,0,1-2.37-.13,1,1,0,0,1-.63-.27,1,1,0,0,1-.13-.6c0-1.35,0-2.7,0-4.05,0-.8.27-.92.49-.92h-2.91c.22,0,.51.12.5.92,0,1.35,0,2.7,0,4.05a1,1,0,0,1-.14.6,1,1,0,0,1-.63.27,15.62,15.62,0,0,1-2.37.13.31.31,0,0,1-.26-.08.36.36,0,0,1-.06-.23,8.83,8.83,0,0,1,.11-1.62c0,.42.14,1,.54,1.07a4.22,4.22,0,0,0,1.17,0c.07-.72.22-2.29.2-2.35a9,9,0,0,0-2.49-.16v44.69h2Z"/><path class="cls-1" d="M1590,868.45h0Z"/><path class="cls-1" d="M463.63,971.51v17.16H434V971.51c0-4.06,5.82-10.15,13.3-10.89.24,0,.48,0,.74,0h.59l.76,0,.73,0C457.7,961.27,463.63,967.42,463.63,971.51Z"/><path class="cls-1" d="M1605.22,868.45Z"/><polygon class="cls-1" points="170.63 965.54 170.63 975.96 182.37 975.96 182.37 967.31 182.37 962.77 170.63 962.77 170.63 965.54"/><path class="cls-1" d="M433.76,890.86H426.9a.77.77,0,0,1-.19-.28,1,1,0,0,1,.24-1.05,2.43,2.43,0,0,1,1-.58,4,4,0,0,1,2.7-.14,9.65,9.65,0,0,1,2.19,1.52A6.15,6.15,0,0,0,433.76,890.86Z"/><polygon class="cls-1" points="153.21 851.64 153.21 849.73 153.21 846.05 153.21 840.31 125.86 840.31 125.86 846.05 125.86 848.9 125.86 849.73 125.86 862.36 153.21 862.36 153.21 851.64"/><path class="cls-1" d="M470.3,890.58a1.15,1.15,0,0,1-.19.28h-6.86a6.56,6.56,0,0,0,.93-.53,10.3,10.3,0,0,1,2.18-1.52,4,4,0,0,1,2.71.14,2.37,2.37,0,0,1,1,.58A1,1,0,0,1,470.3,890.58Z"/><path class="cls-1" d="M1610.59,868.45h0Z"/><path class="cls-1" d="M1602.63,871.19c0,.06.13,1.63.2,2.35a4.64,4.64,0,0,0,1.17,0c.41-.08.57-.65.54-1.07a8.77,8.77,0,0,1,.11,1.62.31.31,0,0,1-.06.23.34.34,0,0,1-.26.08,14.5,14.5,0,0,1-2.37-.14,1,1,0,0,1-.63-.26,1.11,1.11,0,0,1-.14-.6c0-1.35,0-2.7,0-4,0-.81.28-.92.5-.92h-2.91c.22,0,.51.11.5.92,0,1.35,0,2.7,0,4a1.11,1.11,0,0,1-.14.6,1,1,0,0,1-.63.26,14.5,14.5,0,0,1-2.37.14.38.38,0,0,1-.27-.08.36.36,0,0,1,0-.23,8,8,0,0,1,.11-1.62c0,.42.13,1,.54,1.07a4.65,4.65,0,0,0,1.17,0c.07-.72.22-2.29.2-2.35a9.09,9.09,0,0,0-2.5-.16v44.69h2v10.74h5.7V915.72h2.15V871A9.77,9.77,0,0,0,1602.63,871.19Z"/><polygon class="cls-1" points="156.51 963.42 156.51 975.96 168.25 975.96 168.25 965.18 168.25 962.77 156.51 962.77 156.51 963.42"/><path class="cls-1" d="M1565.69,865.46h3.82v2a12.09,12.09,0,0,1,3.75,8.52c0,.15,0,.31,0,.46s0,.3,0,.46V877c0,5.45-2.8,10-6.46,10.83l-.06,1.87.35.11a3.94,3.94,0,0,1,2.07,5.18,3.93,3.93,0,0,1-2.69,2.23l-.29,8.61a52.68,52.68,0,0,0-.74-8.5,3.88,3.88,0,0,1-1.45-.3,4,4,0,0,1-1.35-.95h.09a3.85,3.85,0,0,1-.81-4.24,3.91,3.91,0,0,1,2.43-2.15c-.08-.64-.15-1.28-.18-1.89a6.55,6.55,0,0,1-2.53-1.32l.13,0c-2.37-1.87-4-5.48-4-9.61,0-4,1.48-7.42,3.68-9.36h-.34v-2.1H1565v-7.11c-6.82,0-13.64,0-20.16.1a5.15,5.15,0,0,1-.5.43,5.6,5.6,0,0,0-2.2,3.36,3.53,3.53,0,0,0,.42,2.23h1.73v5h-5.49c.22,0,.52.12.5.92,0,1.35,0,2.7,0,4.05a1,1,0,0,1-.14.6,1,1,0,0,1-.63.27,15.49,15.49,0,0,1-2.36.13.32.32,0,0,1-.27-.08.36.36,0,0,1-.06-.23,9.8,9.8,0,0,1,.11-1.62c0,.42.14,1,.54,1.07a4.3,4.3,0,0,0,1.18,0c.06-.72.21-2.29.19-2.35a8.94,8.94,0,0,0-2.49-.16v44.69h2v10.74h.58v4.76h-2.4V977h2.12v3.74h48.38V976h2.68V931.22h-2.4v-4.76h1.49V915.72H1590V871a9.67,9.67,0,0,0-2.58.16c0,.06.13,1.63.2,2.35a4.64,4.64,0,0,0,1.17,0c.4-.08.57-.65.54-1.07a9.73,9.73,0,0,1,.11,1.62.36.36,0,0,1-.06.23.34.34,0,0,1-.26.08,14.44,14.44,0,0,1-2.37-.14,1,1,0,0,1-.63-.26,1,1,0,0,1-.14-.6c0-1.35,0-2.7,0-4,0-.81.28-.92.5-.92h-4.58v-5H1584a4.45,4.45,0,0,0,.23-1.66c-.06-1-1.26-2.3-1.66-3.36-5.48,0-11.15-.08-16.84-.08Z"/><rect class="cls-1" x="329.71" y="859.3" width="1.64" height="27.02"/><rect class="cls-1" x="275.72" y="859.3" width="1.64" height="27.02"/><path class="cls-1" d="M325.37,859.3v27H281.7v-27h3.19v-5.79h18.35v2.68h-2.5v1.37H301a8.11,8.11,0,0,0-2.4,6.1,8,8,0,0,0,2.6,6.27l-.09,0a4.2,4.2,0,0,0,1.65.85c0,.41.06.82.11,1.24a2.52,2.52,0,0,0-1.58,1.4,2.47,2.47,0,0,0,.53,2.76h-.06a2.8,2.8,0,0,0,.88.62,2.64,2.64,0,0,0,.94.2,33.81,33.81,0,0,1,.48,5.54c.07-1.88.13-3.75.2-5.62a2.52,2.52,0,0,0,1.75-1.45,2.6,2.6,0,0,0,.2-1,2.52,2.52,0,0,0-1.55-2.37l-.23-.07c0-.41,0-.81,0-1.22,2.39-.56,4.21-3.51,4.21-7.06v-.06a8,8,0,0,0-2.47-6.15v-1.32H303.7v-2.68h18.48v5.79Z"/><rect class="cls-1" x="261.52" y="925.9" width="1.66" height="41.61"/><path class="cls-1" d="M338,925.9v21.25l0-9.1a59.85,59.85,0,0,0-15.58-8.34A145.94,145.94,0,0,0,302.77,925v-.07a147.84,147.84,0,0,0-19.7,4.84,59.4,59.4,0,0,0-15.57,8.37V925.9h3.2v-5.78h64.06v5.78Z"/><rect class="cls-1" x="342.28" y="925.9" width="1.66" height="41.61"/><path class="cls-1" d="M338,957.18v10.33H318.42v-3.67h-.1a3.59,3.59,0,0,0,1.59-3,3.67,3.67,0,0,0-7.33,0,3.58,3.58,0,0,0,1.61,3h-.11V990.2H292.71V963.84h-.39a3.58,3.58,0,0,0,1.89-3.14,3.67,3.67,0,0,0-7.34,0,3.57,3.57,0,0,0,1.9,3.14h-.39v3.67H267.5V957.25a49.19,49.19,0,0,1,15-12.77c7.77-4.24,18.77-5.81,20.14-6v0s12,1.46,20.31,6A49.12,49.12,0,0,1,338,957.18Z"/><path class="cls-1" d="M1681.94,952.94a5.74,5.74,0,0,0-5.92,5.53v15.18h11.85V958.47A5.75,5.75,0,0,0,1681.94,952.94Z"/><polygon class="cls-1" points="159.06 896.09 159.06 893.77 159.06 889.33 159.06 882.39 126.01 882.39 126.01 889.33 126.01 889.33 126.01 892.77 126.01 893.77 126.01 908.91 159.06 908.91 159.06 896.09"/><rect class="cls-1" x="439.5" y="927.04" width="21.16" height="4.24"/><rect class="cls-1" x="410.96" y="927.04" width="21.15" height="4.24"/><rect class="cls-1" x="465.62" y="927.02" width="21.16" height="4.24"/><path class="cls-1" d="M1595.34,868.45Z"/><rect class="cls-1" x="1697.35" y="895.98" width="5.21" height="12.7"/><rect class="cls-1" x="1768.83" y="894.54" width="3.04" height="12.7"/><rect class="cls-1" x="1751.96" y="895.08" width="5.21" height="12.7"/><polygon class="cls-1" points="1832.46 942.78 1835.13 942.85 1832.26 942.77 1832.46 942.78"/><path class="cls-1" d="M1727.33,840.66h9.89V833h-.54v-2.39h-18.39V833h-.47v7.68h9.51Zm1-9.53a4.21,4.21,0,0,1,2.94,1.16,4.43,4.43,0,0,1,1.22,2.9.2.2,0,0,1-.2.2c-1.29,0-2.59.05-3.88,0a.21.21,0,0,1-.21-.2c0-.83,0-1.66,0-2.49a.2.2,0,0,1,.25-.2,5.17,5.17,0,0,1,1.55.7,3.61,3.61,0,0,1,.86,1,.21.21,0,0,1-.18.31c-.43,0-.86,0-1.29,0a.2.2,0,0,1,0-.4l.93,0a2.58,2.58,0,0,0-.57-.62,3.68,3.68,0,0,0-1.15-.54c0,.67,0,1.34,0,2,1.16,0,2.32,0,3.47,0a3.63,3.63,0,0,0-3.74-3.46A.2.2,0,0,1,1728.37,831.13Zm0,8.59a3.9,3.9,0,0,0,2.66-1,4,4,0,0,0,1.08-2.41c-1.15,0-2.31,0-3.46,0,0,.67,0,1.34,0,2a3.6,3.6,0,0,0,1.15-.55,2.35,2.35,0,0,0,.56-.62c-.31,0-.61,0-.92,0a.2.2,0,1,1,0-.4c.43,0,.86,0,1.3,0a.21.21,0,0,1,.17.31,3.48,3.48,0,0,1-.86,1,4.5,4.5,0,0,1-1.55.69.21.21,0,0,1-.26-.19c0-.83,0-1.66,0-2.49a.2.2,0,0,1,.19-.2c1.3,0,2.59,0,3.89,0a.19.19,0,0,1,.2.2,4.46,4.46,0,0,1-1.21,2.9,4.3,4.3,0,0,1-3,1.16A.2.2,0,0,1,1728.32,839.72Zm-3.94-7.43a4.25,4.25,0,0,1,2.94-1.16.2.2,0,0,1,0,.4,3.92,3.92,0,0,0-2.66,1,4,4,0,0,0-1.08,2.42c1.15,0,2.31,0,3.47,0,0-.67,0-1.34,0-2a3.7,3.7,0,0,0-1.15.55,2.54,2.54,0,0,0-.56.62l.93,0a.2.2,0,0,1,0,.4c-.44,0-.87,0-1.31,0a.21.21,0,0,1-.17-.31,3.81,3.81,0,0,1,.87-1,5.11,5.11,0,0,1,1.54-.7.21.21,0,0,1,.26.2c0,.83,0,1.66,0,2.49a.2.2,0,0,1-.2.2c-1.29,0-2.59,0-3.88,0a.21.21,0,0,1-.21-.2A4.43,4.43,0,0,1,1724.38,832.29Zm-1.26,3.77a.19.19,0,0,1,.2-.2c1.29,0,2.59-.05,3.88,0a.2.2,0,0,1,.2.2c0,.83,0,1.66,0,2.49a.19.19,0,0,1-.25.19,4.34,4.34,0,0,1-1.55-.69,3.67,3.67,0,0,1-.87-1,.21.21,0,0,1,.18-.31c.44,0,.87,0,1.3,0a.2.2,0,0,1,0,.4l-.93,0a2.54,2.54,0,0,0,.56.62,3.75,3.75,0,0,0,1.16.55c0-.68,0-1.35,0-2-1.15,0-2.31,0-3.46,0a4,4,0,0,0,1.07,2.41,3.9,3.9,0,0,0,2.66,1,.2.2,0,0,1,0,.4,4.29,4.29,0,0,1-2.94-1.16A4.37,4.37,0,0,1,1723.12,836.06Z"/><rect class="cls-1" x="1702.02" y="859.27" width="5.21" height="12.7"/><rect class="cls-1" x="1681.93" y="895.5" width="3.03" height="12.7"/><rect class="cls-1" x="1761.51" y="859.27" width="3.04" height="12.7"/><rect class="cls-1" x="1689.99" y="859.27" width="3.04" height="12.7"/><path class="cls-1" d="M1740.67,874.22V861.48h-.52v-4h-25v4h-.47v12.74h26Zm-11.22-13.72a5.13,5.13,0,0,1,3.51,1.39,5.22,5.22,0,0,1,1.44,3.46.23.23,0,0,1-.23.24c-1.55,0-3.09,0-4.64,0a.24.24,0,0,1-.23-.25c0-1,0-2,0-3a.24.24,0,0,1,.3-.23,5.24,5.24,0,0,1,1.85.83,4.15,4.15,0,0,1,1,1.25.25.25,0,0,1-.21.37c-.52,0-1,0-1.55,0-.3,0-.3-.47,0-.48s.74,0,1.11,0a2.78,2.78,0,0,0-.67-.74,4.32,4.32,0,0,0-1.37-.65c0,.8,0,1.6,0,2.4,1.37,0,2.75,0,4.12,0a4.68,4.68,0,0,0-1.28-2.87,4.6,4.6,0,0,0-3.17-1.24A.25.25,0,0,1,1729.45,860.5Zm-.06,10.24a4.62,4.62,0,0,0,3.17-1.24,4.68,4.68,0,0,0,1.28-2.87c-1.38,0-2.75,0-4.12,0,0,.8,0,1.6,0,2.4a4.42,4.42,0,0,0,1.37-.65,3.17,3.17,0,0,0,.67-.74c-.38,0-.74,0-1.12,0s-.3-.49,0-.48c.53,0,1,0,1.56,0a.24.24,0,0,1,.2.36,4.28,4.28,0,0,1-1,1.25,5.51,5.51,0,0,1-1.85.83.24.24,0,0,1-.3-.23c0-1,0-2,0-3a.25.25,0,0,1,.24-.25c1.54,0,3.08,0,4.63,0a.25.25,0,0,1,.24.24,5.28,5.28,0,0,1-1.45,3.46,5.15,5.15,0,0,1-3.51,1.39A.25.25,0,0,1,1729.39,870.74Zm-4.7-8.85a5.13,5.13,0,0,1,3.51-1.39.25.25,0,0,1,0,.49,4.31,4.31,0,0,0-4.45,4.11c1.37,0,2.75,0,4.12,0,0-.8,0-1.6,0-2.4a4.42,4.42,0,0,0-1.37.65,3,3,0,0,0-.67.74c.38,0,.74,0,1.11,0s.31.49,0,.48c-.52,0-1,0-1.55,0a.25.25,0,0,1-.2-.37,4.12,4.12,0,0,1,1-1.25,5.24,5.24,0,0,1,1.85-.83.24.24,0,0,1,.3.23c0,1,0,2,0,3a.25.25,0,0,1-.24.25c-1.54,0-3.09,0-4.63,0a.24.24,0,0,1-.24-.24A5.28,5.28,0,0,1,1724.69,861.89Zm-1.51,4.49a.25.25,0,0,1,.24-.24c1.54,0,3.09,0,4.63,0a.25.25,0,0,1,.24.25c0,1,0,2,0,3a.24.24,0,0,1-.3.23,5.42,5.42,0,0,1-1.85-.83,4.47,4.47,0,0,1-1-1.25.25.25,0,0,1,.21-.36c.52,0,1,0,1.55,0,.31,0,.31.47,0,.48s-.74,0-1.1,0a2.92,2.92,0,0,0,.66.74,4.37,4.37,0,0,0,1.38.65c0-.8,0-1.6,0-2.4-1.38,0-2.75,0-4.13,0a4.74,4.74,0,0,0,1.29,2.87,4.58,4.58,0,0,0,3.17,1.24.25.25,0,0,1,0,.49,5.13,5.13,0,0,1-3.51-1.39A5.28,5.28,0,0,1,1723.18,866.38Z"/><rect class="cls-1" x="1747.08" y="859.27" width="5.2" height="12.7"/><polygon class="cls-1" points="1854.48 841.34 1855.11 841.35 1857.8 841.42 1858.28 841.43 1861.13 841.51 1861.45 841.52 1864.45 841.59 1864.67 841.6 1867.77 841.68 1867.84 841.68 1871.94 841.79 1872.63 815.72 1854.85 815.26 1854.72 820.23 1854.69 821.14 1854.28 836.51 1854.28 836.66 1854.15 841.33 1854.48 841.34"/><path class="cls-1" d="M1735.75,973.3V955.07a7.22,7.22,0,0,0-7.45-7A7.32,7.32,0,0,0,1721,954a5.49,5.49,0,0,0-.1,1.08V973.3h14.9Z"/><polygon class="cls-1" points="1844.51 841.08 1845.16 841.09 1847.83 841.16 1848.49 841.18 1849.64 841.21 1849.74 837.5 1849.77 836.39 1850.34 815.14 1844.85 815 1844.7 820.67 1844.69 821.07 1844.16 841.07 1844.51 841.08"/><path class="cls-1" d="M1774.15,953.42a5.75,5.75,0,0,0-5.93,5.53v14.7h11.85V959A5.74,5.74,0,0,0,1774.15,953.42Z"/><polygon class="cls-1" points="1881.93 842.05 1882.63 815.98 1877.15 815.84 1877.02 820.8 1877.07 820.81 1877.04 821.91 1876.99 821.91 1876.58 837.09 1876.64 837.09 1876.61 838.2 1876.55 838.2 1876.45 841.91 1884.19 842.11 1881.93 842.05"/><path class="cls-7" d="M1814,861.4h0c1.72.24,48.56,1.26,48.56,1.26s48.4,1.45,50.13,1.3c0,0,1.2,0,.91-.1,3.17-.41,5.15-1.49,6.37-2.8a1.45,1.45,0,0,0-2-2.06,11.29,11.29,0,0,1-9.31,3c-5.33-1.08-12.92-5.25-18.25-11.72a1.47,1.47,0,0,0-1.1-.54l.68,0h0l6.49.17,0-1.17-6.49-.17.06-2.06a4.26,4.26,0,0,0-1.74-3.52l0-.8h-.66v.42a4.36,4.36,0,0,0-1.84-.47l.59,0,.1-3.72h0l0-1.11h-.05l.4-15.18h.06l0-1.1H1887l.13-5h.13a3.6,3.6,0,0,0,3.52-2.46l6.65.18,0-1.17-6.48-.17v0c1.37,0,2.3,0,2.58,0,0,0,1.2,0,.91-.1,3.46-.45,5.51-1.7,6.69-3.18a1.43,1.43,0,0,0-2.14-1.9,11.32,11.32,0,0,1-9.53,3.22c-7.56-1.53-19.2-9.26-23.31-21a1.41,1.41,0,0,0-1.17-.94l.19-6.76,2.52.07a.28.28,0,1,0,0-.56l-2.53-.06.16-6a.27.27,0,0,0-.27-.28.28.28,0,0,0-.29.27l-.16,6-2.72-.07a.28.28,0,0,0-.28.27.27.27,0,0,0,.27.28l2.71.08-.18,6.79a1.4,1.4,0,0,0-1,.87c-4.49,11.44-15.53,18.42-22.56,19.76a12.25,12.25,0,0,1-10.31-3.88,1.43,1.43,0,0,0-2.32,1.67c1.15,1.78,3.39,3.35,7.58,3.93h0c.17,0,.59,0,1.19.08v0l-2.35-.07,0,1.17,2.53.07a3.58,3.58,0,0,0,3.13,2.61l-.15,5.81V821l-.41,15.34,0,1-.1,3.71,1.23,0h-.27a4.37,4.37,0,0,0-2.1.5l0-.55-.66,0,0,1a4.19,4.19,0,0,0-1.68,3.24l-.06,2.06-2.35-.06,0,1.17,3.06.08a1.47,1.47,0,0,0-1.16.52c-5.21,6.1-11.61,9.84-16.55,10.78A12.23,12.23,0,0,1,1808.9,856a1.46,1.46,0,0,0-2.25,1.83C1807.86,859.43,1810.08,860.85,1814,861.4Zm62.53-23.21h.06l0-1.11h-.06l.41-15.18h0l0-1.1h0l.13-5,5.48.14-.7,26.07,2.26.06-7.74-.2Zm-22.27-1.68.41-15.37,0-.91.13-5,17.78.46-.69,26.07-4.1-.11h-.07l-3.1-.08h-.22l-3-.07h-.32l-2.85-.08h-.48l-2.69-.07-.63,0h-.33l.13-4.66Zm-9.58-15.84.15-5.67,5.49.14-.57,21.25,0,1.11-.1,3.71-1.15,0-.66,0-2.67-.07h-1l.53-20Z"/><path class="cls-7" d="M1806.75,912.21h0c2,.24,56.52,1.46,56.52,1.46s56.34,1.66,58.35,1.52c0,0,1.39,0,1.06-.09,3.78-.42,6.11-1.53,7.51-2.88s-.65-3.53-2.18-2.23a14.53,14.53,0,0,1-11.14,3.22c-6.22-1.1-15.1-5.32-21.33-11.84a1.57,1.57,0,0,0-1.11-.5l.66,0,0-1.63a5.87,5.87,0,0,0-4.83-5.9v-.1h-.65v0c-.11,0-.21,0-.32,0l-10-.26.11-4.23,0-1.11.66-24.45-5.26-.14-.12,4.54,0,1.11-.64,24.14-.85,0h-.17l-3-.07h-.32l-2.85-.08h-.47l-2.75-.07-.58,0-2.66-.06-.66,0-2.67-.07H1857l-3.23-.09h-.41l.12-4.23,0-1.1.65-24.45-5.25-.14-.12,4.54,0,1.1-.65,24.15-1,0h-.26l-3.06-.08h-.33l-2.25-.06h.51l.11-4.23,0-1.1.66-24.46-5.26-.13-.12,4.53,0,1.11-.64,24.14,2,.06a5.56,5.56,0,0,0-1.36.13v-.17l-.65,0v.37a5.86,5.86,0,0,0-4.09,5.4l0,.46h0l0,1.17.69,0a1.6,1.6,0,0,0-1.17.47c-6,6.11-13.5,9.84-19.25,10.76a15.75,15.75,0,0,1-12.19-4.09,1.56,1.56,0,0,0-2.34,2.06C1799.48,910.18,1802.08,911.64,1806.75,912.21Z"/><polygon class="cls-7" points="1886.35 869.01 1885.7 893.15 1890.95 893.29 1891.07 889.06 1891.1 887.95 1891.75 863.5 1886.5 863.37 1886.38 867.9 1886.35 869.01"/><path class="cls-7" d="M1938.93,959.8c-4.22,4.27-11,5.2-14.68,4.62a53.34,53.34,0,0,1-24.06-11.21l.62,0,0-1.17-2.07-.06,0-1.63a5.83,5.83,0,0,0-3.22-5.35v-.6l-.65,0v.34a6.2,6.2,0,0,0-1.93-.39l.87,0,.63-23.3v-.22l.17-6.26-6.13-.16-.15,5.38h0l0,.88-.47,17.28v.54l-.15,5.7-2.44-.06H1885l-2.8-.07-.52,0L1879,944h-.66l-2.66-.07-.55,0,5.18.14.62-23.3v-.23l.17-6.26-6.14-.16-.14,5.39,0,.87-.46,17.28v.55l-.16,5.7.85,0-2.67-.07h-.17l-3.15-.08h-.25l-3.07-.08h-.32l-3-.08H1862l-2.93-.07h0l-.48,0-8.58-.22.14-5.14,0-1.1h0l.46-17.06,0-1.1.14-5.38-6.13-.16-.8,29.78-1.58,0h-.5l-2.67-.07-.65,0-2.67-.07h-.36l1,0,.14-5.14,0-1.11.46-17,0-1.11.15-5.38-6.14-.16-.79,29.79,1.53,0h-.15a5.93,5.93,0,0,0-2.53.51v-.57l-.65,0,0,.92a5.85,5.85,0,0,0-2.92,4.88l0,1.63h.6l-3-.07,0,1.17,1,0c-6.88,5.68-15.16,9.17-21.62,10-3.33.44-11.17-.49-15.61-5.46a1.54,1.54,0,0,0-2.58,1.6c1.07,2.36,4,4.74,11.35,5.53h0c.77.08,8.3.3,18,.55l-.15,5.57,0,1.1-.87,32.65-.12,4.42,34.17.89.44-16.64a7.22,7.22,0,0,1,7.45-7l9.64.25a7.2,7.2,0,0,1,7.06,7.34l-.32,12.21h-.08l-.11,4.43h.07l33.57,23.16,1.57-58.6,0-1.84.15-5.58c12.36.33,22.72.58,23.62.53,0,0,1.63,0,1.24-.09,6.37-.57,9.2-2.62,10.36-4.76A1.54,1.54,0,0,0,1938.93,959.8Zm-106.46-17h-.21l2.87.08Z"/><path class="cls-7" d="M205.8,940.68a13.41,13.41,0,0,0,4.5-6.82,9.79,9.79,0,0,0-1.32-7.92,12,12,0,0,0-6.11-4.18,9.06,9.06,0,0,0-3-.55,5.5,5.5,0,0,0-4.65,2.6,4.58,4.58,0,0,0,.44,5.16,4.14,4.14,0,0,0,5.07.84c.8-.49,1.42-1.57.91-2.35a7.27,7.27,0,0,1,3.84,2.81,5.06,5.06,0,0,1,.55,4.6,2.54,2.54,0,0,1-.94,1.24,1.13,1.13,0,0,1-.22.11v-.39a60.58,60.58,0,0,1-20.31-6.5c-5-2.75-12-9.77-15.47-13.42v-5h-2V884.39H190v-.14a2.28,2.28,0,0,0,.3-.21,9.66,9.66,0,0,0,3.26-4.95,7,7,0,0,0-.95-5.74,8.67,8.67,0,0,0-4.43-3,6.55,6.55,0,0,0-2.14-.41,4,4,0,0,0-3.36,1.89,3.31,3.31,0,0,0,.31,3.74,3,3,0,0,0,3.68.61c.58-.36,1-1.14.65-1.7a5.22,5.22,0,0,1,2.79,2,3.71,3.71,0,0,1,.4,3.34,1.9,1.9,0,0,1-.68.9l-.08,0a61.29,61.29,0,0,1-16.51-4.16c-4.51-1.94-11.05-7.2-13.52-9.25v-3h-1.24V842.31H176.3v-.21a1.39,1.39,0,0,0,.43-.28,9.63,9.63,0,0,0,3.26-4.94,7,7,0,0,0-1-5.74,8.64,8.64,0,0,0-4.41-3,6.54,6.54,0,0,0-2.14-.4,4,4,0,0,0-3.38,1.89,3.31,3.31,0,0,0,.32,3.73,3,3,0,0,0,3.67.61c.59-.35,1-1.13.66-1.7a5.3,5.3,0,0,1,2.8,2,3.69,3.69,0,0,1,.39,3.33,1.77,1.77,0,0,1-.69.9,1.44,1.44,0,0,1-.33.16,43,43,0,0,1-13.37-4.14c-4.64-2.44-11.91-10.11-11.91-10.11L117,807.68l-.16-1.59a3.83,3.83,0,0,0,2.6-3.41,4,4,0,0,0-3.29-3.65l-.1-1.14a1.69,1.69,0,0,0,1.24-1.43c0-.69-.63-1.28-1.53-1.54L114.69,784l-1,10.92c-.91.26-1.54.85-1.54,1.54a1.69,1.69,0,0,0,1.24,1.43l-.1,1.14a4,4,0,0,0-3.29,3.65,3.85,3.85,0,0,0,2.6,3.41l-.15,1.59L78.76,824.42s-7.27,7.67-11.91,10.11a42.55,42.55,0,0,1-13.69,4.17,1.72,1.72,0,0,1-.47-.19,1.76,1.76,0,0,1-.68-.9,3.63,3.63,0,0,1,.39-3.33,5.28,5.28,0,0,1,2.79-2c-.37.57.07,1.35.65,1.7a3,3,0,0,0,3.68-.61,3.29,3.29,0,0,0,.31-3.73,4,4,0,0,0-3.37-1.89,6.64,6.64,0,0,0-2.14.4,8.66,8.66,0,0,0-4.42,3,7.08,7.08,0,0,0-.95,5.74,9.63,9.63,0,0,0,3.26,4.94,1.08,1.08,0,0,0,.82.35l.06,0v.17H70.47v22.05H70v3h.14c-2.48,2-9,7.31-13.53,9.25a60.9,60.9,0,0,1-16.76,4.18v.11a1.55,1.55,0,0,1-.4-.17,1.92,1.92,0,0,1-.69-.9,3.71,3.71,0,0,1,.4-3.34,5.26,5.26,0,0,1,2.79-2c-.37.56.07,1.34.65,1.7a3,3,0,0,0,3.68-.61,3.31,3.31,0,0,0,.31-3.74,4,4,0,0,0-3.36-1.89,6.66,6.66,0,0,0-2.15.41,8.69,8.69,0,0,0-4.42,3,7.08,7.08,0,0,0-1,5.74A9.59,9.59,0,0,0,38.92,884a1.1,1.1,0,0,0,.82.34l.06,0v0h21v26.52H59v4.78c-3.4,3.58-10.6,10.84-15.67,13.64a60.49,60.49,0,0,1-20.3,6.5v.53a1.92,1.92,0,0,1-.61-.25,2.62,2.62,0,0,1-.95-1.24,5.12,5.12,0,0,1,.55-4.6,7.33,7.33,0,0,1,3.85-2.81c-.52.78.1,1.86.9,2.35a4.15,4.15,0,0,0,5.08-.84,4.58,4.58,0,0,0,.44-5.16,5.52,5.52,0,0,0-4.65-2.6,9.12,9.12,0,0,0-3,.55,12,12,0,0,0-6.1,4.18,9.79,9.79,0,0,0-1.32,7.92,13.41,13.41,0,0,0,4.5,6.82,1.81,1.81,0,0,0,.88.47v5H20.06v1.41h.23a8.4,8.4,0,0,0-2.47,6.28,8.25,8.25,0,0,0,2.67,6.45l-.09,0a4.4,4.4,0,0,0,1.7.88,11.39,11.39,0,0,0,.13,1.27,2.6,2.6,0,0,0-1.64,1.44,2.56,2.56,0,0,0,.54,2.84h-.06a2.8,2.8,0,0,0,.91.63,2.57,2.57,0,0,0,1,.21,34.72,34.72,0,0,1,.48,5.7c.08-1.93.14-3.85.21-5.78a2.58,2.58,0,0,0,1.79-1.49,2.45,2.45,0,0,0,.22-1,2.59,2.59,0,0,0-1.6-2.43l-.24-.07c0-.42,0-.84,0-1.25,2.47-.59,4.34-3.61,4.34-7.27v-.06a8.34,8.34,0,0,0-2.54-6.33v-1.36H23.1v-4.69H46.58v44.65H33.92v6.73H28.33v6.72H22.49v6.85H207.81v-6.86H202V992.8h-5.6v-6.73H179.85V941.42h24.68v6.86H202v1.41h.23a8.42,8.42,0,0,0-2.47,6.28,8.23,8.23,0,0,0,2.68,6.45l-.09,0a4.29,4.29,0,0,0,1.69.88c0,.41.07.84.13,1.27A2.59,2.59,0,0,0,202.5,966a2.55,2.55,0,0,0,.54,2.84H203a2.56,2.56,0,0,0,.9.63,2.61,2.61,0,0,0,1,.21,34.86,34.86,0,0,1,.5,5.7c.06-1.93.13-3.85.19-5.78a2.61,2.61,0,0,0,1.81-1.49,2.77,2.77,0,0,0,.22-1,2.62,2.62,0,0,0-1.61-2.44l-.23-.07c0-.42,0-.84,0-1.25,2.46-.59,4.33-3.61,4.33-7.27V956a8.37,8.37,0,0,0-2.53-6.33v-1.36H205v-7.14A2.09,2.09,0,0,0,205.8,940.68ZM20.94,955.26a1.63,1.63,0,0,1-.09.79.67.67,0,0,1-.6.46c-.32,0-.55-.3-.7-.58a6.75,6.75,0,0,1-.14-5.5c.31-.88,1.3-2.86,2.5-1.91a6.22,6.22,0,0,0-1.11,3.25A34.05,34.05,0,0,0,20.94,955.26ZM86,842.31h28.7v22.05H86Zm-6.48,42.08h34.71v26.52H79.51ZM67.42,978H55.67V964.77H67.42Zm14.1,0H69.78V964.77H81.52Zm33.78,8.11H96.59V961.62H115.3Zm-1.9-184.23c-.3.4-.41,1-.83,1.27s-1.32-.13-1.45-.79a1.85,1.85,0,0,1,.76-1.75c.77-.59,2.77-1.42,3.62-.68C117.06,801.23,114,801.09,113.4,801.84Zm37.54,82.55v26.52H117.88V884.39Zm-33.2-42.08h27.35v22.05H117.74Zm16.15,143.76H116.6V961.62h6.48l10.81,1.62ZM160.13,978H148.39V964.77h11.74Zm14.11,0H162.5V964.77h11.74Zm28.6-20.53a1.91,1.91,0,0,1-.08.79.69.69,0,0,1-.61.46.94.94,0,0,1-.71-.58,6.79,6.79,0,0,1-.13-5.5c.32-.88,1.3-2.86,2.5-1.91a6.12,6.12,0,0,0-1.1,3.25A31.41,31.41,0,0,0,202.84,957.43Z"/><path class="cls-7" d="M301.61,865.08a1.82,1.82,0,0,1-.09.77.69.69,0,0,1-.59.45c-.32,0-.54-.3-.69-.57a6.59,6.59,0,0,1-.13-5.35c.31-.85,1.26-2.78,2.43-1.85a6,6,0,0,0-1.07,3.15A27.62,27.62,0,0,0,301.61,865.08Z"/><path class="cls-8" d="M301.61,865.08a1.82,1.82,0,0,1-.09.77.69.69,0,0,1-.59.45c-.32,0-.54-.3-.69-.57a6.59,6.59,0,0,1-.13-5.35c.31-.85,1.26-2.78,2.43-1.85a6,6,0,0,0-1.07,3.15A27.62,27.62,0,0,0,301.61,865.08Z"/><path class="cls-7" d="M300.54,808.11l-.43,2.8h6.32l-.43-2.8a5.21,5.21,0,0,0,3.64-4.66c0-2.52-2.21-4.61-5.13-5.08v0c1.31-.33,2.25-1.15,2.25-2.12s-1.06-1.89-2.51-2.17a1.89,1.89,0,0,0,.3-3.32,2,2,0,0,0-1.26-.3v0a1.94,1.94,0,0,0-1.4.82,1.89,1.89,0,0,0,.53,2.65l.19.1c-1.59.2-2.79,1.12-2.79,2.22s.94,1.79,2.25,2.12v0c-2.92.47-5.13,2.56-5.13,5.08A5.21,5.21,0,0,0,300.54,808.11Zm-1.79-5.49a4.64,4.64,0,0,1,1.93-2.72,4.43,4.43,0,0,1,3.73-.61c1.08.42,2.06,1.88.75,2.7-.69.43-1.69.21-2.31.73s-.57,1.13-.83,1.72a1.62,1.62,0,0,1-1.45,1c-.73,0-1.22-.73-1.58-1.36a2.41,2.41,0,0,1-.29-.66A1.76,1.76,0,0,1,298.75,802.62Z"/><path class="cls-7" d="M367.63,894.46a4.13,4.13,0,0,0-4.16,4.1.78.78,0,0,0,0,.16,29,29,0,0,1-10.39-3.15,29.88,29.88,0,0,1-8.37-6v-3.27h-9.05V862.63a1.9,1.9,0,0,0,1.43.59c.32,0,.62-.13.94-.15a1.63,1.63,0,0,1,1.56.95,1.61,1.61,0,0,1-.38,1.77,1.9,1.9,0,0,0,1.82-1.08,14.38,14.38,0,0,0,1-5.41h.06V848.45H342s4.86-.34,10.68-7.4a64.17,64.17,0,0,0,4.69-7.11v-.11a3.49,3.49,0,0,0,2.72-3.39,3.55,3.55,0,0,0-7.1,0,3.42,3.42,0,0,0,0,.45c-5.22.19-14.12.18-20.77-1.59a32.52,32.52,0,0,1-20.14-15.13v-3.23H295v3.23a32.48,32.48,0,0,1-20.14,15.13c-6.64,1.76-15.52,1.78-20.74,1.59a3.42,3.42,0,0,0,0-.45,3.55,3.55,0,1,0-4.4,3.39v.11a65.06,65.06,0,0,0,4.68,7.11c5.83,7.06,10.68,7.4,10.68,7.4v7.21a16.86,16.86,0,0,0-.09,3.48,15.08,15.08,0,0,0,1,5.57,1.9,1.9,0,0,0,1.82,1.08,1.61,1.61,0,0,1-.38-1.77,1.63,1.63,0,0,1,1.56-.95c.32,0,.62.12.94.15a1.86,1.86,0,0,0,1.42-.59v23.69H260.85v2.89c-1.15,1.39-3.6,3.69-8.7,6.36a28.74,28.74,0,0,1-9.33,3,4.16,4.16,0,0,0-8.31.12,4,4,0,0,0,1.6,3.2v.75a22.07,22.07,0,0,0,4.8,6.92c3.21,3,10,5.95,10,5.95h0v4.59h0v2.15a16.86,16.86,0,0,0-.09,3.48,15.27,15.27,0,0,0,1,5.57,2,2,0,0,0,1.82,1.08,1.6,1.6,0,0,1-.37-1.77,1.64,1.64,0,0,1,1.56-1c.31,0,.62.13.93.15a1.85,1.85,0,0,0,1.43-.59v12a9.88,9.88,0,0,1-1.12.44,20.86,20.86,0,0,1-6.06.1c-1.06-.11-2.44-.11-2.84.87a2.56,2.56,0,0,0-.11.83c0,2.41-.05,4.82-.07,7.24a1.13,1.13,0,0,0,.24.86,1.21,1.21,0,0,0,.78.18l4,0c0-1,.09-2,.14-3-.32.46-.49,1-.82,1.45a1.27,1.27,0,0,1-1.46.52c-.57-.27-.62-1-.6-1.63s0-.92.06-1.38a1,1,0,0,1,.25-.76,1,1,0,0,1,.62-.15l3-.07a.78.78,0,0,1,.38.06c.23.15.2.48.16.75a8.13,8.13,0,0,0,3.51,7.83v12.24H247.8V990.2H236.11v21.48H369.16V990.2H357.7V967.51h-9.44V956.38a8.1,8.1,0,0,0,4-8.15c0-.27-.07-.6.16-.75a.84.84,0,0,1,.38-.06l3,.07a1,1,0,0,1,.61.15.94.94,0,0,1,.26.76c0,.46,0,.92.05,1.37,0,.62,0,1.37-.59,1.64a1.26,1.26,0,0,1-1.46-.52c-.34-.45-.51-1-.82-1.45l.15,3,4,0a1.17,1.17,0,0,0,.76-.18,1.09,1.09,0,0,0,.24-.86c0-2.42-.05-4.83-.07-7.24a2.4,2.4,0,0,0-.11-.84c-.4-1-1.78-1-2.83-.86a20.86,20.86,0,0,1-6.06-.1c-.33-.06-1.14-.5-1.65-.62V929.23a1.86,1.86,0,0,0,1.43.59c.32,0,.62-.13.94-.15a1.64,1.64,0,0,1,1.56,1,1.61,1.61,0,0,1-.38,1.77,1.94,1.94,0,0,0,1.82-1.08,14.42,14.42,0,0,0,1-5.42h.06V915.41c1.25-.56,6.86-3.18,9.69-5.83a22.33,22.33,0,0,0,4.82-6.92v-.29a4.09,4.09,0,0,0-1.53-7.91ZM329.71,859.3h1.64v27h-1.64Zm-48,0h3.19v-5.79h18.35v2.68h-2.5v1.37H301a8.11,8.11,0,0,0-2.4,6.1,8,8,0,0,0,2.6,6.27l-.09,0a4.2,4.2,0,0,0,1.65.85c0,.41.06.82.11,1.24a2.52,2.52,0,0,0-1.58,1.4,2.47,2.47,0,0,0,.53,2.76h-.06a2.8,2.8,0,0,0,.88.62,2.64,2.64,0,0,0,.94.2,33.81,33.81,0,0,1,.48,5.54c.07-1.88.13-3.75.2-5.62a2.52,2.52,0,0,0,1.75-1.45,2.6,2.6,0,0,0,.2-1,2.52,2.52,0,0,0-1.55-2.37l-.23-.07c0-.41,0-.81,0-1.22,2.39-.56,4.21-3.51,4.21-7.06v-.06a8,8,0,0,0-2.47-6.15v-1.32H303.7v-2.68h18.48v5.79h3.19v27H281.7Zm19.91,5.78a1.82,1.82,0,0,1-.09.77.69.69,0,0,1-.59.45c-.32,0-.54-.3-.69-.57a6.59,6.59,0,0,1-.13-5.35c.31-.85,1.26-2.78,2.43-1.85a6,6,0,0,0-1.07,3.15A27.62,27.62,0,0,0,301.61,865.08Zm-25.89-5.78h1.65v27h-1.65ZM263.18,967.51h-1.66V925.9h1.66Zm74.77,0H318.42v-3.67h-.1a3.59,3.59,0,0,0,1.59-3,3.67,3.67,0,0,0-7.33,0,3.58,3.58,0,0,0,1.61,3h-.11V990.2H292.71V963.84h-.39a3.58,3.58,0,0,0,1.89-3.14,3.67,3.67,0,0,0-7.34,0,3.57,3.57,0,0,0,1.9,3.14h-.39v3.67H267.5V957.25a49.19,49.19,0,0,1,15-12.77c7.77-4.24,18.77-5.81,20.14-6v0s12,1.46,20.31,6a49.12,49.12,0,0,1,15,12.71Zm0-20.36,0-9.1a59.85,59.85,0,0,0-15.58-8.34A145.94,145.94,0,0,0,302.77,925v-.07a147.84,147.84,0,0,0-19.7,4.84,59.4,59.4,0,0,0-15.57,8.37V925.9h3.2v-5.78h64.06v5.78H338Zm6,20.36h-1.65V925.9h1.65Z"/><path class="cls-7" d="M299,804.1c.36.63.85,1.32,1.58,1.36a1.62,1.62,0,0,0,1.45-1c.26-.59.33-1.31.83-1.72s1.62-.3,2.31-.73c1.31-.82.33-2.28-.75-2.7a4.43,4.43,0,0,0-3.73.61,4.64,4.64,0,0,0-1.93,2.72,1.76,1.76,0,0,0-.05.82A2.41,2.41,0,0,0,299,804.1Z"/><path class="cls-8" d="M299,804.1c.36.63.85,1.32,1.58,1.36a1.62,1.62,0,0,0,1.45-1c.26-.59.33-1.31.83-1.72s1.62-.3,2.31-.73c1.31-.82.33-2.28-.75-2.7a4.43,4.43,0,0,0-3.73.61,4.64,4.64,0,0,0-1.93,2.72,1.76,1.76,0,0,0-.05.82A2.41,2.41,0,0,0,299,804.1Z"/><path class="cls-7" d="M1560.39,880.09c.23.42.57.85,1,.87a1,1,0,0,0,.91-.69,2.76,2.76,0,0,0,.12-1.18,50.41,50.41,0,0,1-.2-5.21,9.24,9.24,0,0,1,1.64-4.84c-1.78-1.42-3.25,1.55-3.72,2.85C1559.24,874.55,1559,877.62,1560.39,880.09Z"/><path class="cls-8" d="M1560.39,880.09c.23.42.57.85,1,.87a1,1,0,0,0,.91-.69,2.76,2.76,0,0,0,.12-1.18,50.41,50.41,0,0,1-.2-5.21,9.24,9.24,0,0,1,1.64-4.84c-1.78-1.42-3.25,1.55-3.72,2.85C1559.24,874.55,1559,877.62,1560.39,880.09Z"/><path class="cls-7" d="M1629.24,843.44c6.88-3.11,24.45-10.48,24.45-10.48s.91-2.05-1.45-5.28a28.94,28.94,0,0,0-4.52-5s-14.29,14.75-21,16c-12.69,2.39-112.21,2.39-124.9,0-6.73-1.26-21-16-21-16a28.72,28.72,0,0,0-4.53,5c-2.35,3.23-1.45,5.28-1.45,5.28s17.57,7.37,24.46,10.48a10.56,10.56,0,0,0,2.56.5v10.95a10.56,10.56,0,0,0-2.56.5c-6.89,3.11-24.46,10.48-24.46,10.48s-.9,2,1.45,5.28a28.72,28.72,0,0,0,4.53,5s14.28-14.75,21-16a60,60,0,0,1,6.46-.66,6.28,6.28,0,0,1,1.11,2.31,4.46,4.46,0,0,1-.71,2.68h-2v5h4.58c-.22,0-.51.12-.5.92,0,1.35,0,2.7,0,4.05a1.11,1.11,0,0,0,.14.6,1,1,0,0,0,.63.27,15.7,15.7,0,0,0,2.37.13.31.31,0,0,0,.26-.08.31.31,0,0,0,.06-.23,8.83,8.83,0,0,0-.11-1.62c0,.42-.13,1-.54,1.07a4.22,4.22,0,0,1-1.17,0c-.07-.72-.22-2.29-.2-2.35a9.77,9.77,0,0,1,2.59-.16v44.69h-2.15v10.74h-1.49v4.76h2.4V977h-2.68v3.74h-17v14.79h-15.28v14.79h172.08V995.56H1634.8V980.77h-21.89V976h-2.12V931.22h2.4v-4.76h-.58V915.72h-2V871a9,9,0,0,1,2.49.16c0,.06-.13,1.63-.2,2.35a4.64,4.64,0,0,1-1.17,0c-.4-.08-.57-.65-.54-1.07a8.77,8.77,0,0,0-.11,1.62.36.36,0,0,0,.06.23.34.34,0,0,0,.26.08,14.44,14.44,0,0,0,2.37-.14,1,1,0,0,0,.63-.26,1,1,0,0,0,.14-.6c0-1.35,0-2.7,0-4,0-.81-.28-.92-.5-.92h5.49v-5H1617a3.52,3.52,0,0,1,0-1.21,5.13,5.13,0,0,1,1.63-2.86,76.35,76.35,0,0,1,8.12.76c6.73,1.26,21,16,21,16a28.94,28.94,0,0,0,4.52-5c2.36-3.23,1.45-5.28,1.45-5.28s-17.57-7.37-24.45-10.48a9.56,9.56,0,0,0-2.22-.46v-11A9.56,9.56,0,0,0,1629.24,843.44Zm-109.12,28.61a9,9,0,0,1,2.49.16c0,.06-.13,1.63-.2,2.35a4.22,4.22,0,0,1-1.17,0c-.4-.08-.57-.65-.54-1.07a8.83,8.83,0,0,0-.11,1.62.36.36,0,0,0,.06.23.31.31,0,0,0,.26.08,15.62,15.62,0,0,0,2.37-.13,1,1,0,0,0,.63-.27,1,1,0,0,0,.14-.6c0-1.35,0-2.7,0-4.05,0-.8-.28-.92-.5-.92h2.91c-.22,0-.51.12-.49.92,0,1.35,0,2.7,0,4.05a1,1,0,0,0,.13.6,1,1,0,0,0,.63.27,15.7,15.7,0,0,0,2.37.13.33.33,0,0,0,.27-.08.36.36,0,0,0,.05-.23,8,8,0,0,0-.11-1.62c0,.42-.13,1-.54,1.07a4.22,4.22,0,0,1-1.17,0c-.07-.72-.22-2.29-.2-2.35a9.82,9.82,0,0,1,2.59-.16v44.69h-2.15v10.74h-5.7V916.74h-2Zm85.1-3.6h0Zm-9.88,0h0Zm-5.37,0Zm13.1,47.27v10.74h-5.7V915.72h-2V871a9.09,9.09,0,0,1,2.5.16c0,.06-.13,1.63-.2,2.35a4.65,4.65,0,0,1-1.17,0c-.41-.08-.57-.65-.54-1.07a8,8,0,0,0-.11,1.62.36.36,0,0,0,0,.23.38.38,0,0,0,.27.08,14.5,14.5,0,0,0,2.37-.14,1,1,0,0,0,.63-.26,1.11,1.11,0,0,0,.14-.6c0-1.35,0-2.7,0-4,0-.81-.28-.92-.5-.92h2.91c-.22,0-.51.11-.5.92,0,1.35,0,2.7,0,4a1.11,1.11,0,0,0,.14.6,1,1,0,0,0,.63.26,14.5,14.5,0,0,0,2.37.14.34.34,0,0,0,.26-.08.31.31,0,0,0,.06-.23,8.77,8.77,0,0,0-.11-1.62c0,.42-.13,1-.54,1.07a4.64,4.64,0,0,1-1.17,0c-.07-.72-.22-2.29-.2-2.35a9.77,9.77,0,0,1,2.59-.16v44.69Zm7.52-47.27Zm-26.4-6.66a4.45,4.45,0,0,1-.23,1.66h-2.09v5h4.58c-.22,0-.51.11-.5.92,0,1.35,0,2.7,0,4a1,1,0,0,0,.14.6,1,1,0,0,0,.63.26,14.44,14.44,0,0,0,2.37.14.34.34,0,0,0,.26-.08.36.36,0,0,0,.06-.23,9.73,9.73,0,0,0-.11-1.62c0,.42-.14,1-.54,1.07a4.64,4.64,0,0,1-1.17,0c-.07-.72-.22-2.29-.2-2.35A9.67,9.67,0,0,1,1590,871v44.69h-2.14v10.74h-1.49v4.76h2.4V976h-2.68v4.76h-48.38V977h-2.12V932.24h2.4v-4.76h-.58V916.74h-2V872.05a8.94,8.94,0,0,1,2.49.16c0,.06-.13,1.63-.19,2.35a4.3,4.3,0,0,1-1.18,0c-.4-.08-.57-.65-.54-1.07a9.8,9.8,0,0,0-.11,1.62.36.36,0,0,0,.06.23.32.32,0,0,0,.27.08,15.49,15.49,0,0,0,2.36-.13,1,1,0,0,0,.63-.27,1,1,0,0,0,.14-.6c0-1.35,0-2.7,0-4.05,0-.8-.28-.92-.5-.92h5.49v-5h-1.73a3.53,3.53,0,0,1-.42-2.23,5.6,5.6,0,0,1,2.2-3.36,5.15,5.15,0,0,0,.5-.43c6.52-.07,13.34-.11,20.16-.1v7.11h-3.83v2.1h.34c-2.2,1.94-3.68,5.4-3.68,9.36,0,4.13,1.61,7.74,4,9.61l-.13,0a6.55,6.55,0,0,0,2.53,1.32c0,.61.1,1.25.18,1.89a3.91,3.91,0,0,0-2.43,2.15,3.85,3.85,0,0,0,.81,4.24h-.09a4,4,0,0,0,1.35.95,3.88,3.88,0,0,0,1.45.3,52.68,52.68,0,0,1,.74,8.5l.29-8.61a3.93,3.93,0,0,0,2.69-2.23,3.94,3.94,0,0,0-2.07-5.18l-.35-.11.06-1.87c3.66-.86,6.46-5.38,6.46-10.83v-.08c0-.16,0-.31,0-.46s0-.31,0-.46a12.09,12.09,0,0,0-3.75-8.52v-2h-3.82v-7.11c5.69,0,11.36,0,16.84.08C1582.93,859.49,1584.13,860.82,1584.19,861.79ZM1563.91,869a9.24,9.24,0,0,0-1.64,4.84,50.41,50.41,0,0,0,.2,5.21,2.76,2.76,0,0,1-.12,1.18,1,1,0,0,1-.91.69c-.48,0-.82-.45-1-.87-1.37-2.47-1.15-5.54-.2-8.2C1560.66,870.59,1562.13,867.62,1563.91,869Z"/><path class="cls-7" d="M504.73,997v-8.31H499.5l-4.64-33.06h1.47v-1.73h-1.7l-1.09-7.76H495s-.2-.6.86-1.78a7.47,7.47,0,0,1,2.62-1.79l0,0,2.65-2.82a14,14,0,0,1-5.48-1.8c-2.56-1.57-6.3-5.85-6.3-5.85h0v-7.44h1.41a3,3,0,0,1,.83-2,7,7,0,0,1,2.38-1.8h0l1.67-3s-12-3-15.89-6.45c-3-2.63-6.56-12.92-8-17.43h.08v-2.62a1.14,1.14,0,0,0,.28-.5,3.86,3.86,0,0,0-1.09-3.6,4,4,0,0,0-3.69-.94c-1.19.3-2.17,1.14-3.33,1.49a2.23,2.23,0,0,1-1.42,0c-.44-.19-.79-.61-1.26-.7a1.26,1.26,0,0,0-1.19.5,2.65,2.65,0,0,0-.5,1.24l1.35.33c.12.17-.08.4-.28.41a1.44,1.44,0,0,1-.58-.17.49.49,0,0,0-.57.06.57.57,0,0,0-.11.25,1.89,1.89,0,0,0,0,1.18H437.69a1.83,1.83,0,0,0,0-1.18.55.55,0,0,0-.1-.25.49.49,0,0,0-.57-.06,1.49,1.49,0,0,1-.58.17c-.2,0-.4-.24-.29-.41l1.35-.33a2.54,2.54,0,0,0-.49-1.24,1.27,1.27,0,0,0-1.19-.5c-.47.09-.82.51-1.27.7a2.23,2.23,0,0,1-1.42,0c-1.17-.35-2.14-1.19-3.32-1.49a4,4,0,0,0-3.69.94,3.87,3.87,0,0,0-1.1,3.6,1.52,1.52,0,0,0,.54.77v2.35h0c-1.42,4.54-4.89,14.85-7.82,17.51-3.8,3.44-15.81,6.63-15.81,6.63l1.72,3a6.71,6.71,0,0,1,2.38,1.79c1,1.18.8,1.78.8,1.78h1.4v7.44s-.94,1.07-2.19,2.34a26.32,26.32,0,0,1-4.11,3.51,14.06,14.06,0,0,1-5.48,1.8l2.67,2.84a7.65,7.65,0,0,1,2.63,1.79c1,1.18.86,1.78.86,1.78h.95l-.85,6.11-.23,1.65h-2.08v1.73h1.84l-4.63,33.06H392v6.19h0V997H379.82v8.31H517.37V997Zm-72.62-65.7H411V927h21.15Zm-5.21-40.42a.77.77,0,0,1-.19-.28,1,1,0,0,1,.24-1.05,2.43,2.43,0,0,1,1-.58,4,4,0,0,1,2.7-.14,9.65,9.65,0,0,1,2.19,1.52,6.15,6.15,0,0,0,.94.53Zm37.28-.53a10.3,10.3,0,0,1,2.18-1.52,4,4,0,0,1,2.71.14,2.37,2.37,0,0,1,1,.58,1,1,0,0,1,.25,1.05,1.15,1.15,0,0,1-.19.28h-6.86A6.56,6.56,0,0,0,464.18,890.33ZM439.5,927h21.16v4.24H439.5Zm24.13,61.63H434V971.51c0-4.06,5.82-10.15,13.3-10.89.24,0,.48,0,.74,0h.59l.76,0,.73,0c7.55.65,13.48,6.8,13.48,10.89Zm23.15-57.41H465.62V927h21.16Z"/><path class="cls-7" d="M1783.8,940.77v0h0l4.87-5.31h0a4.15,4.15,0,0,0-.22-4.64,3.76,3.76,0,0,0-3.25-1.35,2.38,2.38,0,0,0-1.4.58,1.47,1.47,0,0,0-.47,1.4,3.19,3.19,0,0,1,1.44.15,1.3,1.3,0,0,1,.86,1.09c0,.67-.64,1.14-1.31,1.25a34.27,34.27,0,0,1-5.09-2.81c-2.54-1.68-4.55-7.1-4.55-7.1h0v-.1h2.87v-2.79h-2.87v-3.45h0v-3h2.22v-2.8h-2.22V891.06h0l4.09-5.3h0c1.39-1.17,1.24-3.75.19-5a3.71,3.71,0,0,0-3.26-1.35,2.39,2.39,0,0,0-1.4.57,1.47,1.47,0,0,0-.47,1.4,3.38,3.38,0,0,1,1.45.15,1.31,1.31,0,0,1,.85,1.1c0,.77-.85,1.28-1.61,1.27a2.21,2.21,0,0,1-.37,0,24.67,24.67,0,0,1-3.29-2.38c-2.75-2.36-4.45-7.2-4.45-7.2h-.08V857.51h.56l3.42-5.3h0a4,4,0,0,0,0-4.89,3.78,3.78,0,0,0-3.26-1.35,2.38,2.38,0,0,0-1.4.58,1.47,1.47,0,0,0-.47,1.4,3.19,3.19,0,0,1,1.44.15,1.28,1.28,0,0,1,.86,1.09,1.35,1.35,0,0,1-1.18,1.22,31.68,31.68,0,0,1-3-2c-4.73-3.51-5.47-7.74-5.47-7.74h-.08V830.59h-.12l2.52-5.8,0-.07.06-.13a4.26,4.26,0,0,0-.5-4.14,3.71,3.71,0,0,0-3.25-1.35,2.42,2.42,0,0,0-1.41.57,1.52,1.52,0,0,0-.47,1.4,3.37,3.37,0,0,1,1.45.15,1.34,1.34,0,0,1,.86,1.1c0,.67-.64,1.14-1.32,1.25h0a43.68,43.68,0,0,1-6.64-2c-6-2.62-11.19-7.7-12.86-9.47v-2h-1.77v-4s-.07-.51,1.38-1.3a10.12,10.12,0,0,1,2.23-1,14,14,0,0,1-3.91-3.58c-.08-.13-.17-.26-.24-.4a10.41,10.41,0,0,1-1.18-4.28c0-.18,0-.28,0-.28h-1.29V792h1.19v-1.69h-2.07a3.27,3.27,0,0,0,.36-.25h0a5.76,5.76,0,0,0,.86-.77h0a4.23,4.23,0,0,0,.33-.41l.07-.11c.08-.11.15-.23.22-.35l.08-.15c.05-.11.11-.22.15-.33a1.34,1.34,0,0,0,.07-.18,2.13,2.13,0,0,0,.11-.33l.06-.19c0-.12,0-.25.07-.37l0-.17a5.07,5.07,0,0,0,0-.55,4.91,4.91,0,0,0,0-.67l0-.17a5.27,5.27,0,0,0-.14-.57s0,0,0-.07a4.35,4.35,0,0,0-.25-.59c0-.05,0-.09-.07-.14a4.94,4.94,0,0,0-.3-.49l0-.07a4.15,4.15,0,0,0-.43-.51l-.09-.09a5.66,5.66,0,0,0-.44-.4l-.07-.06a4.35,4.35,0,0,0-.57-.38l-.09-.05a5.85,5.85,0,0,0-.56-.28l-.07,0a4.63,4.63,0,0,0,.42-.32l.15-.14a5.14,5.14,0,0,0,.38-.42l.06-.09a3.14,3.14,0,0,0,.28-.46l.06-.13a3.49,3.49,0,0,0,.2-.57s0-.08,0-.13a3.39,3.39,0,0,0,.07-.64h0a3.41,3.41,0,0,0-.07-.65,1.46,1.46,0,0,0,0-.2,3.66,3.66,0,0,0-.15-.43,1.54,1.54,0,0,0-.08-.19,3.78,3.78,0,0,0-.26-.43l-.08-.12a3.55,3.55,0,0,0-.41-.46l-.18-.15-.33-.25-.24-.14-.37-.19-.23-.1h0l.07-.07a2.83,2.83,0,0,0,.24-.25l.11-.13.18-.3.08-.15a3.4,3.4,0,0,0,.12-.34s0-.1,0-.16a2.33,2.33,0,0,0,.06-.53,2.4,2.4,0,0,0-2.35-2.45,3.27,3.27,0,0,0-.44,0h0a2.41,2.41,0,0,0-1.9,2.4,2.48,2.48,0,0,0,.91,1.93,3.58,3.58,0,0,0-2.49,3.32,3.48,3.48,0,0,0,1.64,2.9,5,5,0,0,0-3.23,4.57,4.9,4.9,0,0,0,2.45,4.17h-2.49V792h1.35v3.27h-1.25a10.41,10.41,0,0,1-1.44,5,13.84,13.84,0,0,1-3.91,3.58,10.27,10.27,0,0,1,2.24,1,3.42,3.42,0,0,1,1.26,1,.64.64,0,0,1,.12.3v4h-1.94v1.92c-1.63,1.73-6.8,6.86-12.89,9.5a47.68,47.68,0,0,1-7,2.11,1.27,1.27,0,0,1-1-1.16,1.29,1.29,0,0,1,.85-1.09,3.23,3.23,0,0,1,1.45-.15,1.47,1.47,0,0,0-.47-1.4,2.47,2.47,0,0,0-1.4-.58,3.77,3.77,0,0,0-3.26,1.35,4.1,4.1,0,0,0-.13,4.73h0l2.27,5.22v10.07s-.74,4.23-5.47,7.74a29.13,29.13,0,0,1-3.07,2h0a1.3,1.3,0,0,1-1-1.17,1.33,1.33,0,0,1,.86-1.1,3.37,3.37,0,0,1,1.45-.15,1.47,1.47,0,0,0-.47-1.4,2.47,2.47,0,0,0-1.4-.58,3.75,3.75,0,0,0-3.26,1.36,4.07,4.07,0,0,0,0,4.81h0a.26.26,0,0,0-.1,0h0l3.42,5.3h.13v16.71s-1.74,4.84-4.52,7.2a24.23,24.23,0,0,1-3.47,2.45l-.18,0c-.77,0-1.64-.5-1.62-1.27a1.28,1.28,0,0,1,.86-1.09,3.19,3.19,0,0,1,1.44-.15,1.47,1.47,0,0,0-.47-1.4,2.44,2.44,0,0,0-1.4-.58,3.75,3.75,0,0,0-3.25,1.35c-1,1.28-1.2,3.8.12,5h-.09l4.15,5.3h.52v20.73H1678v2.8h1.73v1.53h0v5h-1.1v2.79h1.1v.1h.24c-.3.67-2.29,4.93-5.34,7.1a29.68,29.68,0,0,1-4.16,2.46,4.36,4.36,0,0,1-1,.17c-.76,0-1.64-.5-1.62-1.27a1.33,1.33,0,0,1,.86-1.1,3.38,3.38,0,0,1,1.45-.15,1.47,1.47,0,0,0-.47-1.4,2.47,2.47,0,0,0-1.4-.58,3.75,3.75,0,0,0-3.26,1.36,4,4,0,0,0,0,4.85l4.94,5.31h.62v32.92h-4.25v30h121.26v-30h-3.82Zm-60.22-155a2.61,2.61,0,0,1,.78-2.36c.59-.57,2.48-1.6,3.3-.91.33.28.09.84-.27,1.08a6.22,6.22,0,0,0-1.12.66,3.34,3.34,0,0,0-.52,1.29,1.69,1.69,0,0,1-.7.93,1,1,0,0,1-1.13,0A1.12,1.12,0,0,1,1723.58,785.73Zm-2,16.63a5.32,5.32,0,0,0,1-1.67c.34-.85.87-5,1.75-4.91,0,.59-.74,7.44-.51,7.44h-3.59A3.17,3.17,0,0,0,1721.54,802.36ZM1692.23,1002c-.13.41-.54.89-.9.65-.21-.13-.23-.41-.24-.65l-.15-12.32a4.16,4.16,0,0,1,.35-2.13c.54-1,2.68-1.27,3.12,0a1.71,1.71,0,0,1-.28,1.41c-.26.43-.61.79-.84,1.23a5.11,5.11,0,0,0-.48,1.85,46.05,46.05,0,0,0-.31,6.32A11.15,11.15,0,0,1,1692.23,1002Zm-4.36-28.35H1676V958.47a5.94,5.94,0,0,1,11.85,0Zm.35-42.41c.46-1.12.89-2.26,1.29-3.4a23.48,23.48,0,0,0,1.06-2.87c0-.2,0-.4.07-.59a3.25,3.25,0,0,1-.07.59c-.44,3.46-.54,7.1-1.28,10.48-.77-.08-2-.25-2.21-1.15S1687.9,932,1688.22,931.24Zm25.63-6.21a5.27,5.27,0,0,1,.43,1.89c.17,1.24.2,2.5.44,3.73a19,19,0,0,0,1.61,4.47,4.48,4.48,0,0,1-2.27-1.56,4.25,4.25,0,0,1-.39-2.35A57.83,57.83,0,0,1,1713.85,925Zm66.22,48.62h-11.85V959a5.94,5.94,0,0,1,11.85,0ZM1757,1001a2.38,2.38,0,0,1-.11,1,.79.79,0,0,1-.83.52c-.41-.08-.61-.54-.7-.94a14.07,14.07,0,0,1-.25-2.52l-.39-9.65c-.16-4.06,4-3.25,3.21.59A46,46,0,0,0,1757,1001Zm-2-17.45a4.28,4.28,0,0,1,1.35-1.76,5.62,5.62,0,0,1,.88-.66,3,3,0,0,1,1.49-.38c.36,0,.8.25.39.66a1.84,1.84,0,0,1-.4.26,2.43,2.43,0,0,0-1.15,1.09,14.83,14.83,0,0,1-.51,1.46,1.46,1.46,0,0,1-1.19.67,1,1,0,0,1-.79-.37A1.1,1.1,0,0,1,1755,983.58Zm-34.15-28.51a5.49,5.49,0,0,1,.1-1.08,7.32,7.32,0,0,1,7.35-5.88,7.22,7.22,0,0,1,7.45,7V973.3h-14.9Zm-28.29,27.48c.48-.55,2.29-2.27,3.1-1.39a.54.54,0,0,1,0,.64,2.18,2.18,0,0,1-.53.43,3.44,3.44,0,0,0-1.16,1.38c-.15.31-.25.63-.42.91a1.09,1.09,0,0,1-.79.55,1,1,0,0,1-.92-1.11A2.43,2.43,0,0,1,1692.56,982.55Zm3.38-96.55a6.41,6.41,0,0,1-2.29-1.07c1.17-3.19,1.87-6.57,3.09-9.73-.08,1.85-.51,3.67-.77,5.5C1695.89,881.25,1695.27,885.84,1695.94,886Zm18.78-24.52h.47v-4h25v4h.52v12.74h-26Zm3.1-28.5h.47v-2.39h18.39V833h.54v7.68h-19.4Zm3.21-12.77a31.71,31.71,0,0,0,1.09-6.47c0,3.56.25,7.15.14,10.71-.48-.41-1.41-1-1.66-1.56S1720.87,820.94,1721,820.21Zm-2.53,30.15c.58-2.53.49-5.05.83-7.58a4.57,4.57,0,0,1,.4,1.48,25.71,25.71,0,0,1,.15,2.77,41.22,41.22,0,0,0,.63,5.08l-1.83-1.3a.41.41,0,0,1-.18-.19A.46.46,0,0,1,1718.5,850.36Zm-17.59-2.57a25.44,25.44,0,0,0,1.74-5.67c-.39,3.46-1.76,6.77-1.93,10.24-.74-.71-1.22-.77-1-1.77A29.5,29.5,0,0,1,1700.91,847.79Zm15.7,27.18c.32,1.69.24,3.5.54,5.23a31.83,31.83,0,0,0,1.45,5.33,7.52,7.52,0,0,1-1.37-.74,1.31,1.31,0,0,1-.53-.59,1.23,1.23,0,0,1,0-.47c0-1.52,0-3,0-4.55C1716.64,878,1716.17,876,1716.61,875Zm40.56,20.11v12.69H1752V895.08Zm-59.82.9h5.21v12.69h-5.21Zm71.48,11.26v-12.7h3v12.7ZM1747.08,872V859.27h5.2V872Zm14.43,0V859.27h3V872Zm-54.68-48.57c.1-.44,1.53-1,1.91-1.26,1.4-.87,2.79-1.78,4.13-2.75a30.33,30.33,0,0,0,6.11-5.75c.27-.36.54-.72.79-1.09-.25.37-.51.73-.79,1.09a64.67,64.67,0,0,1-4.56,5.33,42.83,42.83,0,0,1-6.16,6C1707.8,824.59,1706.67,824.07,1706.83,823.39Zm.4,35.88V872H1702V859.27Zm-14.2,0V872h-3V859.27ZM1685,895.5v12.69h-3V895.5Z"/><path class="cls-7" d="M1723.48,865.59c1.54,0,3.09,0,4.63,0a.25.25,0,0,0,.24-.25c0-1,0-2,0-3a.24.24,0,0,0-.3-.23,5.24,5.24,0,0,0-1.85.83,4.12,4.12,0,0,0-1,1.25.25.25,0,0,0,.2.37c.52,0,1,0,1.55,0,.31,0,.31-.47,0-.48s-.73,0-1.11,0a3,3,0,0,1,.67-.74,4.42,4.42,0,0,1,1.37-.65c0,.8,0,1.6,0,2.4-1.37,0-2.75,0-4.12,0a4.31,4.31,0,0,1,4.45-4.11.25.25,0,0,0,0-.49,5.13,5.13,0,0,0-3.51,1.39,5.28,5.28,0,0,0-1.45,3.46A.24.24,0,0,0,1723.48,865.59Z"/><path class="cls-7" d="M1729.45,861a4.6,4.6,0,0,1,3.17,1.24,4.68,4.68,0,0,1,1.28,2.87c-1.37,0-2.75,0-4.12,0,0-.8,0-1.6,0-2.4a4.32,4.32,0,0,1,1.37.65,2.78,2.78,0,0,1,.67.74c-.37,0-.73,0-1.11,0s-.3.49,0,.48c.52,0,1,0,1.55,0a.25.25,0,0,0,.21-.37,4.15,4.15,0,0,0-1-1.25,5.24,5.24,0,0,0-1.85-.83.24.24,0,0,0-.3.23c0,1,0,2,0,3a.24.24,0,0,0,.23.25c1.55,0,3.09,0,4.64,0a.23.23,0,0,0,.23-.24,5.22,5.22,0,0,0-1.44-3.46,5.13,5.13,0,0,0-3.51-1.39A.25.25,0,0,0,1729.45,861Z"/><path class="cls-7" d="M1728.14,870.74a4.58,4.58,0,0,1-3.17-1.24,4.74,4.74,0,0,1-1.29-2.87c1.38,0,2.75,0,4.13,0,0,.8,0,1.6,0,2.4a4.37,4.37,0,0,1-1.38-.65,2.92,2.92,0,0,1-.66-.74c.36,0,.73,0,1.1,0s.31-.49,0-.48c-.52,0-1,0-1.55,0a.25.25,0,0,0-.21.36,4.47,4.47,0,0,0,1,1.25,5.42,5.42,0,0,0,1.85.83.24.24,0,0,0,.3-.23c0-1,0-2,0-3a.25.25,0,0,0-.24-.25c-1.54,0-3.09,0-4.63,0a.25.25,0,0,0-.24.24,5.28,5.28,0,0,0,1.45,3.46,5.13,5.13,0,0,0,3.51,1.39A.25.25,0,0,0,1728.14,870.74Z"/><path class="cls-7" d="M1729.39,871.23a5.15,5.15,0,0,0,3.51-1.39,5.28,5.28,0,0,0,1.45-3.46.25.25,0,0,0-.24-.24c-1.55,0-3.09,0-4.63,0a.25.25,0,0,0-.24.25c0,1,0,2,0,3a.24.24,0,0,0,.3.23,5.51,5.51,0,0,0,1.85-.83,4.28,4.28,0,0,0,1-1.25.24.24,0,0,0-.2-.36c-.52,0-1,0-1.56,0-.3,0-.3.47,0,.48s.74,0,1.12,0a3.17,3.17,0,0,1-.67.74,4.42,4.42,0,0,1-1.37.65c0-.8,0-1.6,0-2.4,1.37,0,2.74,0,4.12,0a4.68,4.68,0,0,1-1.28,2.87,4.62,4.62,0,0,1-3.17,1.24A.25.25,0,0,0,1729.39,871.23Z"/><path class="cls-7" d="M1723.37,835.39c1.29,0,2.59.05,3.88,0a.2.2,0,0,0,.2-.2c0-.83,0-1.66,0-2.49a.21.21,0,0,0-.26-.2,5.11,5.11,0,0,0-1.54.7,3.81,3.81,0,0,0-.87,1,.21.21,0,0,0,.17.31c.44,0,.87,0,1.31,0a.2.2,0,0,0,0-.4l-.93,0a2.54,2.54,0,0,1,.56-.62,3.7,3.7,0,0,1,1.15-.55c0,.68,0,1.35,0,2-1.16,0-2.32,0-3.47,0a4,4,0,0,1,1.08-2.42,3.92,3.92,0,0,1,2.66-1,.2.2,0,0,0,0-.4,4.25,4.25,0,0,0-2.94,1.16,4.43,4.43,0,0,0-1.22,2.9A.21.21,0,0,0,1723.37,835.39Z"/><path class="cls-7" d="M1728.37,831.53a3.63,3.63,0,0,1,3.74,3.46c-1.15,0-2.31,0-3.47,0,0-.67,0-1.34,0-2a3.68,3.68,0,0,1,1.15.54,2.58,2.58,0,0,1,.57.62l-.93,0a.2.2,0,0,0,0,.4c.43,0,.86,0,1.29,0a.21.21,0,0,0,.18-.31,3.61,3.61,0,0,0-.86-1,5.17,5.17,0,0,0-1.55-.7.2.2,0,0,0-.25.2c0,.83,0,1.66,0,2.49a.21.21,0,0,0,.21.2c1.29,0,2.59,0,3.88,0a.2.2,0,0,0,.2-.2,4.43,4.43,0,0,0-1.22-2.9,4.21,4.21,0,0,0-2.94-1.16A.2.2,0,0,0,1728.37,831.53Z"/><path class="cls-7" d="M1727.27,839.72a3.9,3.9,0,0,1-2.66-1,4,4,0,0,1-1.07-2.41c1.15,0,2.31,0,3.46,0,0,.67,0,1.34,0,2a3.75,3.75,0,0,1-1.16-.55,2.54,2.54,0,0,1-.56-.62l.93,0a.2.2,0,0,0,0-.4c-.43,0-.86,0-1.3,0a.21.21,0,0,0-.18.31,3.67,3.67,0,0,0,.87,1,4.34,4.34,0,0,0,1.55.69.19.19,0,0,0,.25-.19c0-.83,0-1.66,0-2.49a.2.2,0,0,0-.2-.2c-1.29,0-2.59,0-3.88,0a.19.19,0,0,0-.2.2,4.37,4.37,0,0,0,1.21,2.9,4.29,4.29,0,0,0,2.94,1.16A.2.2,0,0,0,1727.27,839.72Z"/><path class="cls-7" d="M1728.32,840.12a4.3,4.3,0,0,0,3-1.16,4.46,4.46,0,0,0,1.21-2.9.19.19,0,0,0-.2-.2c-1.3,0-2.59-.05-3.89,0a.2.2,0,0,0-.19.2c0,.83,0,1.66,0,2.49a.21.21,0,0,0,.26.19A4.5,4.5,0,0,0,1730,838a3.48,3.48,0,0,0,.86-1,.21.21,0,0,0-.17-.31c-.44,0-.87,0-1.3,0a.2.2,0,1,0,0,.4c.31,0,.61,0,.92,0a2.35,2.35,0,0,1-.56.62,3.6,3.6,0,0,1-1.15.55c0-.68,0-1.35,0-2,1.15,0,2.31,0,3.46,0a4,4,0,0,1-1.08,2.41,3.9,3.9,0,0,1-2.66,1A.2.2,0,0,0,1728.32,840.12Z"/><path class="cls-7" d="M1692.74,985.07a1.09,1.09,0,0,0,.79-.55c.17-.28.27-.6.42-.91a3.44,3.44,0,0,1,1.16-1.38,2.18,2.18,0,0,0,.53-.43.54.54,0,0,0,0-.64c-.81-.88-2.62.84-3.1,1.39a2.43,2.43,0,0,0-.74,1.41A1,1,0,0,0,1692.74,985.07Z"/><path class="cls-9" d="M1692.74,985.07a1.09,1.09,0,0,0,.79-.55c.17-.28.27-.6.42-.91a3.44,3.44,0,0,1,1.16-1.38,2.18,2.18,0,0,0,.53-.43.54.54,0,0,0,0-.64c-.81-.88-2.62.84-3.1,1.39a2.43,2.43,0,0,0-.74,1.41A1,1,0,0,0,1692.74,985.07Z"/><path class="cls-7" d="M1755.86,984.92a1.46,1.46,0,0,0,1.19-.67,14.83,14.83,0,0,0,.51-1.46,2.43,2.43,0,0,1,1.15-1.09,1.84,1.84,0,0,0,.4-.26c.41-.41,0-.64-.39-.66a3,3,0,0,0-1.49.38,5.62,5.62,0,0,0-.88.66,4.28,4.28,0,0,0-1.35,1.76,1.1,1.1,0,0,0,.07,1A1,1,0,0,0,1755.86,984.92Z"/><path class="cls-10" d="M1755.86,984.92a1.46,1.46,0,0,0,1.19-.67,14.83,14.83,0,0,0,.51-1.46,2.43,2.43,0,0,1,1.15-1.09,1.84,1.84,0,0,0,.4-.26c.41-.41,0-.64-.39-.66a3,3,0,0,0-1.49.38,5.62,5.62,0,0,0-.88.66,4.28,4.28,0,0,0-1.35,1.76,1.1,1.1,0,0,0,.07,1A1,1,0,0,0,1755.86,984.92Z"/><path class="cls-7" d="M1725.05,786.42a1.69,1.69,0,0,0,.7-.93,3.34,3.34,0,0,1,.52-1.29,6.22,6.22,0,0,1,1.12-.66c.36-.24.6-.8.27-1.08-.82-.69-2.71.34-3.3.91a2.61,2.61,0,0,0-.78,2.36,1.12,1.12,0,0,0,.34.64A1,1,0,0,0,1725.05,786.42Z"/><path class="cls-11" d="M1725.05,786.42a1.69,1.69,0,0,0,.7-.93,3.34,3.34,0,0,1,.52-1.29,6.22,6.22,0,0,1,1.12-.66c.36-.24.6-.8.27-1.08-.82-.69-2.71.34-3.3.91a2.61,2.61,0,0,0-.78,2.36,1.12,1.12,0,0,0,.34.64A1,1,0,0,0,1725.05,786.42Z"/><path class="cls-7" d="M1724.28,795.78c-.88-.07-1.41,4.06-1.75,4.91a5.32,5.32,0,0,1-1,1.67,3.17,3.17,0,0,1-1.36.85h3.59C1723.54,803.22,1724.27,796.37,1724.28,795.78Z"/><path class="cls-11" d="M1724.28,795.78c-.88-.07-1.41,4.06-1.75,4.91a5.32,5.32,0,0,1-1,1.67,3.17,3.17,0,0,1-1.36.85h3.59C1723.54,803.22,1724.27,796.37,1724.28,795.78Z"/><path class="cls-7" d="M1708.26,824.92a42.83,42.83,0,0,0,6.16-6,64.67,64.67,0,0,0,4.56-5.33,30.33,30.33,0,0,1-6.11,5.75c-1.34,1-2.73,1.88-4.13,2.75-.38.24-1.81.82-1.91,1.26C1706.67,824.07,1707.8,824.59,1708.26,824.92Z"/><path class="cls-11" d="M1708.26,824.92a42.83,42.83,0,0,0,6.16-6,64.67,64.67,0,0,0,4.56-5.33,30.33,30.33,0,0,1-6.11,5.75c-1.34,1-2.73,1.88-4.13,2.75-.38.24-1.81.82-1.91,1.26C1706.67,824.07,1707.8,824.59,1708.26,824.92Z"/><path class="cls-7" d="M1719,813.63c.28-.36.54-.72.79-1.09C1719.52,812.91,1719.25,813.27,1719,813.63Z"/><path class="cls-11" d="M1719,813.63c.28-.36.54-.72.79-1.09C1719.52,812.91,1719.25,813.27,1719,813.63Z"/><path class="cls-7" d="M1722.26,824.45c.11-3.56-.18-7.15-.14-10.71a31.71,31.71,0,0,1-1.09,6.47c-.16.73-.73,1.93-.43,2.68S1721.78,824,1722.26,824.45Z"/><path class="cls-11" d="M1722.26,824.45c.11-3.56-.18-7.15-.14-10.71a31.71,31.71,0,0,1-1.09,6.47c-.16.73-.73,1.93-.43,2.68S1721.78,824,1722.26,824.45Z"/><path class="cls-7" d="M1700.72,852.36c.17-3.47,1.54-6.78,1.93-10.24a25.44,25.44,0,0,1-1.74,5.67,29.5,29.5,0,0,0-1.16,2.8C1699.5,851.59,1700,851.65,1700.72,852.36Z"/><path class="cls-11" d="M1700.72,852.36c.17-3.47,1.54-6.78,1.93-10.24a25.44,25.44,0,0,1-1.74,5.67,29.5,29.5,0,0,0-1.16,2.8C1699.5,851.59,1700,851.65,1700.72,852.36Z"/><path class="cls-7" d="M1718.68,850.81l1.83,1.3a41.22,41.22,0,0,1-.63-5.08,25.71,25.71,0,0,0-.15-2.77,4.57,4.57,0,0,0-.4-1.48c-.34,2.53-.25,5.05-.83,7.58a.46.46,0,0,0,0,.26A.41.41,0,0,0,1718.68,850.81Z"/><path class="cls-11" d="M1718.68,850.81l1.83,1.3a41.22,41.22,0,0,1-.63-5.08,25.71,25.71,0,0,0-.15-2.77,4.57,4.57,0,0,0-.4-1.48c-.34,2.53-.25,5.05-.83,7.58a.46.46,0,0,0,0,.26A.41.41,0,0,0,1718.68,850.81Z"/><path class="cls-7" d="M1696.74,875.2c-1.22,3.16-1.92,6.54-3.09,9.73a6.41,6.41,0,0,0,2.29,1.07c-.67-.16,0-4.75,0-5.3C1696.23,878.87,1696.66,877.05,1696.74,875.2Z"/><path class="cls-11" d="M1696.74,875.2c-1.22,3.16-1.92,6.54-3.09,9.73a6.41,6.41,0,0,0,2.29,1.07c-.67-.16,0-4.75,0-5.3C1696.23,878.87,1696.66,877.05,1696.74,875.2Z"/><path class="cls-7" d="M1716.7,884.2a1.31,1.31,0,0,0,.53.59,7.52,7.52,0,0,0,1.37.74,31.83,31.83,0,0,1-1.45-5.33c-.3-1.73-.22-3.54-.54-5.23-.44,1.07,0,3,.05,4.21,0,1.52,0,3,0,4.55A1.23,1.23,0,0,0,1716.7,884.2Z"/><path class="cls-11" d="M1716.7,884.2a1.31,1.31,0,0,0,.53.59,7.52,7.52,0,0,0,1.37.74,31.83,31.83,0,0,1-1.45-5.33c-.3-1.73-.22-3.54-.54-5.23-.44,1.07,0,3,.05,4.21,0,1.52,0,3,0,4.55A1.23,1.23,0,0,0,1716.7,884.2Z"/><path class="cls-7" d="M1689.29,935.45c.74-3.38.84-7,1.28-10.48a23.48,23.48,0,0,1-1.06,2.87c-.4,1.14-.83,2.28-1.29,3.4-.32.78-1.3,2.2-1.14,3.06S1688.52,935.37,1689.29,935.45Z"/><path class="cls-11" d="M1689.29,935.45c.74-3.38.84-7,1.28-10.48a23.48,23.48,0,0,1-1.06,2.87c-.4,1.14-.83,2.28-1.29,3.4-.32.78-1.3,2.2-1.14,3.06S1688.52,935.37,1689.29,935.45Z"/><path class="cls-7" d="M1690.57,925a3.25,3.25,0,0,0,.07-.59C1690.62,924.57,1690.59,924.77,1690.57,925Z"/><path class="cls-11" d="M1690.57,925a3.25,3.25,0,0,0,.07-.59C1690.62,924.57,1690.59,924.77,1690.57,925Z"/><path class="cls-7" d="M1714.06,933.56a4.48,4.48,0,0,0,2.27,1.56,19,19,0,0,1-1.61-4.47c-.24-1.23-.27-2.49-.44-3.73a5.27,5.27,0,0,0-.43-1.89,57.83,57.83,0,0,0-.18,6.18A4.25,4.25,0,0,0,1714.06,933.56Z"/><path class="cls-11" d="M1714.06,933.56a4.48,4.48,0,0,0,2.27,1.56,19,19,0,0,1-1.61-4.47c-.24-1.23-.27-2.49-.44-3.73a5.27,5.27,0,0,0-.43-1.89,57.83,57.83,0,0,0-.18,6.18A4.25,4.25,0,0,0,1714.06,933.56Z"/><path class="cls-7" d="M1757.88,990.06c.79-3.84-3.37-4.65-3.21-.59l.39,9.65a14.07,14.07,0,0,0,.25,2.52c.09.4.29.86.7.94a.79.79,0,0,0,.83-.52,2.38,2.38,0,0,0,.11-1A46,46,0,0,1,1757.88,990.06Z"/><path class="cls-10" d="M1757.88,990.06c.79-3.84-3.37-4.65-3.21-.59l.39,9.65a14.07,14.07,0,0,0,.25,2.52c.09.4.29.86.7.94a.79.79,0,0,0,.83-.52,2.38,2.38,0,0,0,.11-1A46,46,0,0,1,1757.88,990.06Z"/><path class="cls-7" d="M1693.29,990.18c.23-.44.58-.8.84-1.23a1.71,1.71,0,0,0,.28-1.41c-.44-1.26-2.58-.95-3.12,0a4.16,4.16,0,0,0-.35,2.13l.15,12.32c0,.24,0,.52.24.65.36.24.77-.24.9-.65a11.15,11.15,0,0,0,.27-3.65,46.05,46.05,0,0,1,.31-6.32A5.11,5.11,0,0,1,1693.29,990.18Z"/><path class="cls-9" d="M1693.29,990.18c.23-.44.58-.8.84-1.23a1.71,1.71,0,0,0,.28-1.41c-.44-1.26-2.58-.95-3.12,0a4.16,4.16,0,0,0-.35,2.13l.15,12.32c0,.24,0,.52.24.65.36.24.77-.24.9-.65a11.15,11.15,0,0,0,.27-3.65,46.05,46.05,0,0,1,.31-6.32A5.11,5.11,0,0,1,1693.29,990.18Z"/><rect class="cls-1" width="1949.44" height="1080"/><rect class="cls-1" width="1920" height="1080"/><text class="cls-12" transform="translate(640.4 959.17)">C<tspan class="cls-13" x="66.79" y="0">ON</tspan><tspan class="cls-14" x="215.42" y="0">T</tspan><tspan class="cls-15" x="272.64" y="0">A</tspan><tspan class="cls-16" x="341.22" y="0">C</tspan><tspan class="cls-17" x="408.47" y="0">T US</tspan></text></g></g></g></svg>